<?xml version="1.0" encoding="utf-8"?>
<!-- Generator: Adobe Illustrator 26.4.1, SVG Export Plug-In . SVG Version: 6.00 Build 0)  -->
<svg version="1.1" id="Capa_1" xmlns="http://www.w3.org/2000/svg" xmlns:xlink="http://www.w3.org/1999/xlink" x="0px" y="0px"
	 viewBox="0 0 1920 1080" style="enable-background:new 0 0 1920 1080;" xml:space="preserve">
<style type="text/css">
	.st0{fill:url(#SVGID_1_);}
	.st1{fill:#FFFFFF;}
	.st2{fill:url(#SVGID_00000048496563350712871510000010172683844641926317_);}
	.st3{fill:none;}
	.st4{fill:#C6A03D;}
	.st5{fill-rule:evenodd;clip-rule:evenodd;fill:#FFFFFF;}
	.st6{fill:#DEBD6D;}
	.st7{fill:#D6B45C;}
	.st8{fill-rule:evenodd;clip-rule:evenodd;fill:#C6A03D;}
	.st9{fill:#D1AD51;}
	.st10{fill:#020203;}
	.st11{fill-rule:evenodd;clip-rule:evenodd;fill:#020203;}
</style>
<linearGradient id="SVGID_1_" gradientUnits="userSpaceOnUse" x1="5.5131" y1="7.5711" x2="1910.9733" y2="1071.0374">
	<stop  offset="2.794752e-04" style="stop-color:#3C2875"/>
	<stop  offset="0.9999" style="stop-color:#64BFB4"/>
</linearGradient>
<rect x="-0.5" class="st0" width="1920" height="1080"/>
<polygon class="st1" points="1920,0 718.1,0 638.1,80 79.5,80 79.5,638.6 -0.5,718.6 -0.5,1080 1200.8,1080 1280.8,1000 
	1839.5,1000 1839.5,441.3 1920,360.8 "/>
<linearGradient id="SVGID_00000052801091898713309470000017513899560531654563_" gradientUnits="userSpaceOnUse" x1="1606.3722" y1="-0.2804" x2="1694.1918" y2="427.2856">
	<stop  offset="0" style="stop-color:#4D3D90"/>
	<stop  offset="1" style="stop-color:#35A3BC"/>
</linearGradient>
<path style="fill:url(#SVGID_00000052801091898713309470000017513899560531654563_);" d="M1594.1,0v424c0,6,7.1,9.2,11.7,5.2
	l44.3-39.1l44.3,39.1c4.5,4,11.6,0.8,11.6-5.2V0H1594.1z"/>
<rect x="-0.5" class="st3" width="1920" height="1080"/>
<path class="st4" d="M1665.1,138.8l3.1,2.3c6.1,4.5,13.6,6.7,21.1,6.2l3.8-0.2c11.1-0.7,21.3,5.9,25.3,16.3l1.4,3.6
	c2.7,7.1,7.8,12.9,14.4,16.6l3.4,1.9c9.7,5.4,14.7,16.5,12.5,27.4l-0.8,3.8c-1.5,7.4-0.4,15.1,3.1,21.8l1.8,3.4
	c5.2,9.8,3.5,21.9-4.3,29.8l-2.7,2.7c-5.3,5.4-8.5,12.5-9.2,20l-0.3,3.8c-0.9,11.1-8.9,20.3-19.7,22.8l-3.7,0.9
	c-7.4,1.7-13.9,5.9-18.5,11.9l-2.3,3c-6.8,8.8-18.4,12.2-28.9,8.5l-3.6-1.3c-7.1-2.6-14.9-2.6-22,0l-3.6,1.3
	c-10.4,3.8-22.1,0.3-28.9-8.5l-2.3-3c-4.6-6-11.2-10.2-18.5-11.9l-3.7-0.9c-10.8-2.5-18.8-11.7-19.7-22.8l-0.3-3.8
	c-0.6-7.5-3.9-14.6-9.2-20l-2.7-2.7c-7.8-7.9-9.5-20-4.3-29.8l1.8-3.4c3.6-6.7,4.7-14.4,3.1-21.8l-0.8-3.8
	c-2.2-10.9,2.8-22,12.5-27.4l3.4-1.9c6.6-3.7,11.7-9.6,14.4-16.6l1.4-3.6c4-10.4,14.2-16.9,25.3-16.3l3.8,0.2
	c7.6,0.5,15-1.7,21.1-6.2l3.1-2.3C1643.9,132.2,1656.1,132.2,1665.1,138.8z"/>
<path class="st5" d="M1632.9,136c10.2-7.5,24-7.5,34.2,0l3.1,2.3c5.5,4,12.1,5.9,18.9,5.5l3.8-0.2c12.6-0.8,24.3,6.7,28.8,18.5
	l1.4,3.6c2.4,6.3,7,11.6,12.9,14.9l3.4,1.9c11,6.2,16.8,18.8,14.2,31.1l-0.8,3.8c-1.4,6.6-0.4,13.5,2.8,19.5l1.8,3.4
	c5.9,11.2,4,24.9-4.9,33.9l-2.7,2.7c-4.7,4.8-7.6,11.2-8.2,17.9l-0.3,3.8c-1,12.6-10.1,23.1-22.4,25.9l-3.7,0.9
	c-6.6,1.5-12.4,5.3-16.5,10.6l-2.3,3c-7.7,10-21,13.9-32.8,9.6l-3.6-1.3c-6.4-2.3-13.3-2.3-19.7,0l-3.6,1.3
	c-11.9,4.3-25.2,0.4-32.8-9.6l0,0l-2.3-3c-4.1-5.4-10-9.1-16.5-10.6l0,0l-3.7-0.9c-12.3-2.8-21.4-13.3-22.4-25.9l-0.3-3.8
	c-0.6-6.7-3.4-13.1-8.2-17.9l-2.7-2.7c-8.8-9-10.8-22.7-4.9-33.9l1.8-3.4c3.2-6,4.2-12.8,2.8-19.5l-0.8-3.8
	c-2.5-12.4,3.2-25,14.2-31.1l3.4-1.9l0,0c5.9-3.3,10.4-8.6,12.9-14.9l1.4-3.6l0,0c4.5-11.8,16.2-19.3,28.8-18.5l0,0l3.8,0.2
	c6.7,0.4,13.4-1.6,18.9-5.5L1632.9,136z M1637,141.6L1637,141.6l-3.1,2.3c-6.8,4.9-15,7.4-23.4,6.9l0,0l-3.8-0.2
	c-9.6-0.6-18.4,5.1-21.8,14l-1.4,3.6l0,0c-3,7.8-8.7,14.3-16,18.4l-3.4,1.9l0,0c-8.4,4.7-12.7,14.2-10.8,23.6l0.8,3.8
	c1.7,8.2,0.5,16.8-3.5,24.2l-1.8,3.4l0,0c-4.5,8.5-3,18.9,3.7,25.7l2.7,2.7c5.9,6,9.4,13.8,10.1,22.2l0.3,3.8
	c0.8,9.5,7.7,17.5,17,19.6l3.7,0.9c8.2,1.9,15.4,6.5,20.5,13.2l0,0l2.3,3c5.8,7.6,15.9,10.6,24.9,7.3l3.6-1.3
	c7.9-2.8,16.5-2.8,24.4,0l3.6,1.3c9,3.2,19.1,0.3,24.9-7.3l2.3-3c5.1-6.7,12.4-11.3,20.5-13.2l3.7-0.9c9.3-2.1,16.2-10.1,17-19.6
	l0.3-3.8c0.7-8.4,4.3-16.2,10.1-22.2l2.7-2.7c6.7-6.8,8.2-17.2,3.7-25.7l-1.8-3.4c-3.9-7.4-5.2-15.9-3.5-24.2l0.8-3.8
	c1.9-9.4-2.4-18.9-10.8-23.6l-3.4-1.9c-7.3-4.1-13-10.6-16-18.4l0,0l-1.4-3.6c-3.4-8.9-12.3-14.6-21.8-14l-3.8,0.2
	c-8.4,0.5-16.6-1.9-23.4-6.9l-3.1-2.3C1655.3,136,1644.8,136,1637,141.6z"/>
<path class="st6" d="M1659.9,152.9l7.8,5.2c3.7,2.4,8,3.7,12.4,3.6l9.4-0.1c7.2-0.1,13.8,4.1,16.7,10.7l3.8,8.6
	c1.8,4,4.7,7.4,8.5,9.8l7.9,5c6.1,3.8,9.4,10.9,8.2,18l-1.4,9.3c-0.7,4.3,0,8.8,1.8,12.8l4,8.5c3.1,6.5,2,14.2-2.8,19.6l-6.2,7
	c-2.9,3.3-4.8,7.4-5.4,11.7l-1.2,9.3c-0.9,7.1-6,13-13,15l-9,2.5c-4.2,1.2-8,3.6-10.9,7l-6,7.2c-4.7,5.5-12.1,7.7-19,5.6l-9-2.8
	c-4.2-1.3-8.7-1.3-12.9,0l-9,2.8c-6.9,2.1-14.4-0.1-19-5.6l-6-7.2c-2.8-3.4-6.6-5.8-10.9-7l-9-2.5c-6.9-1.9-12-7.8-13-15l-1.2-9.3
	c-0.6-4.4-2.4-8.5-5.4-11.7l-6.2-7c-4.8-5.4-5.9-13.1-2.8-19.6l4-8.5c1.9-4,2.5-8.4,1.8-12.8l-1.4-9.3c-1.1-7.1,2.1-14.2,8.2-18
	l7.9-5c3.7-2.3,6.7-5.7,8.5-9.8l3.8-8.6c2.9-6.6,9.5-10.8,16.7-10.7l9.4,0.1c4.4,0.1,8.7-1.2,12.4-3.6l7.8-5.2
	C1646.1,149,1653.9,149,1659.9,152.9z"/>
<path class="st5" d="M1661,151.3c-6.7-4.4-15.4-4.4-22,0l-7.8,5.2l0,0c-3.3,2.2-7.3,3.4-11.3,3.3l-9.4-0.1l0,0
	c-8-0.1-15.3,4.6-18.5,11.9l-3.8,8.6c-1.6,3.7-4.3,6.8-7.7,8.9l-7.9,5c-6.8,4.2-10.4,12.1-9.2,20l1.4,9.3c0.6,4,0,8-1.7,11.6l0,0
	l-4,8.5c-3.4,7.2-2.2,15.8,3.1,21.8l0,0l6.2,7c2.7,3,4.4,6.7,4.9,10.7l1.2,9.3l2-0.3l-2,0.3c1,7.9,6.7,14.5,14.4,16.7l0,0l9,2.5
	c3.9,1.1,7.3,3.3,9.9,6.3l0,0l6,7.2c5.2,6.1,13.5,8.6,21.1,6.2l9-2.8l-0.6-1.9l0.6,1.9c3.8-1.2,7.9-1.2,11.7,0l0.6-1.9l-0.6,1.9
	l9,2.8c7.7,2.4,16-0.1,21.1-6.2l6-7.2c2.6-3.1,6-5.3,9.9-6.3l9-2.5l0,0c7.7-2.2,13.4-8.7,14.4-16.7l1.2-9.3l0,0
	c0.5-4,2.2-7.7,4.9-10.7l6.2-7c5.3-6,6.6-14.6,3.1-21.8l-4-8.5l-1.8,0.9l1.8-0.9c-1.7-3.6-2.3-7.7-1.7-11.6l1.4-9.3
	c1.2-7.9-2.4-15.8-9.2-20l-7.9-5c-3.4-2.1-6.1-5.2-7.7-8.9l-3.8-8.6c-3.2-7.3-10.5-12-18.5-11.9l-9.4,0.1c-4,0-7.9-1.1-11.3-3.3l0,0
	L1661,151.3L1661,151.3z M1658.8,154.6c-5.3-3.5-12.3-3.5-17.6,0l0,0l-7.8,5.2l0,0c-4,2.6-8.7,4-13.5,4l-9.4-0.1
	c-6.4-0.1-12.2,3.7-14.8,9.5l-3.8,8.6c-1.9,4.4-5.2,8.1-9.2,10.6l-7.9,5c-5.4,3.4-8.3,9.7-7.3,16l1.4,9.3c0.7,4.7,0,9.6-2,13.9
	l-4,8.5l-1.8-0.9l1.8,0.9c-2.7,5.8-1.7,12.7,2.5,17.5l6.2,7l0,0c3.2,3.6,5.2,8.1,5.9,12.8l1.2,9.3c0.8,6.4,5.4,11.6,11.5,13.3l9,2.5
	c4.6,1.3,8.8,3.9,11.9,7.6l0,0l6,7.2l0,0c4.1,4.9,10.8,6.8,16.9,5l9-2.8c4.6-1.4,9.5-1.4,14.1,0l9,2.8c6.1,1.9,12.8-0.1,16.9-5
	l1.5,1.3l-1.5-1.3l6-7.2c3.1-3.7,7.2-6.3,11.9-7.6l9-2.5c6.2-1.7,10.7-7,11.5-13.3l2,0.3l-2-0.3l1.2-9.3c0.6-4.8,2.7-9.2,5.9-12.8
	l1.5,1.3l-1.5-1.3l6.2-7c4.3-4.8,5.2-11.7,2.5-17.5l-4-8.5c-2-4.3-2.7-9.2-2-13.9l1.4-9.3l1.9,0.3l-1.9-0.3c1-6.3-1.9-12.6-7.3-16
	l-7.9-5c-4.1-2.5-7.3-6.3-9.2-10.6l0,0l-3.8-8.6l1.8-0.8l-1.8,0.8c-2.6-5.9-8.4-9.6-14.8-9.5l-9.4,0.1c-4.8,0.1-9.5-1.3-13.5-4
	L1658.8,154.6z"/>
<ellipse class="st7" cx="1650.1" cy="241.4" rx="72.5" ry="72.5"/>
<path class="st8" d="M1575.6,241.5c0-41.1,33.4-74.5,74.5-74.5s74.5,33.4,74.5,74.5s-33.4,74.5-74.5,74.5
	C1608.9,316,1575.6,282.6,1575.6,241.5z M1650.1,171c-38.9,0-70.5,31.6-70.5,70.5s31.6,70.5,70.5,70.5s70.5-31.6,70.5-70.5
	S1689,171,1650.1,171z"/>
<ellipse class="st9" cx="1650.1" cy="241.4" rx="65" ry="65"/>
<path class="st8" d="M1583.6,241.5c0-36.7,29.8-66.5,66.5-66.5s66.5,29.8,66.5,66.5s-29.8,66.5-66.5,66.5
	C1613.3,308,1583.6,278.2,1583.6,241.5z M1650.1,178c-35.1,0-63.5,28.4-63.5,63.5s28.4,63.5,63.5,63.5s63.5-28.4,63.5-63.5
	S1685.1,178,1650.1,178z"/>
<path class="st5" d="M1668.1,230.4h-25.5v23.2v2.2h0.1C1656.7,255.8,1668,244.4,1668.1,230.4z M1668.1,230.4L1668.1,230.4
	c0-14-11.4-25.4-25.4-25.4s-25.4,11.4-25.4,25.4s11.3,25.3,25.2,25.4V280h26.9c7.3,0,13.2-5.9,13.2-13.2c0-5-2.8-9.3-6.9-11.6
	c4.1-2.2,6.9-6.6,6.9-11.6c0-7.3-5.9-13.2-13.2-13.2L1668.1,230.4L1668.1,230.4z"/>
<path class="st10" d="M225,169.1c1.2,0,2.3-0.3,3.3-0.8c1-0.6,1.7-1.3,2.3-2.3s0.8-2.1,0.8-3.4c0-1.3-0.3-2.4-0.8-3.4
	s-1.3-1.7-2.3-2.3s-2.1-0.8-3.3-0.8s-2.3,0.3-3.3,0.8s-1.7,1.3-2.3,2.3c-0.5,1-0.8,2.1-0.8,3.4c0,1.3,0.3,2.4,0.8,3.4
	c0.6,1,1.3,1.8,2.3,2.3C222.8,168.8,223.8,169.1,225,169.1z M225,173.1c-2.1,0-4-0.5-5.7-1.4s-3-2.2-4-3.7c-0.9-1.6-1.4-3.4-1.4-5.4
	s0.5-3.8,1.4-5.4c1-1.6,2.3-2.9,4-3.8c1.7-0.9,3.6-1.4,5.7-1.4c2.1,0,4,0.5,5.7,1.4s3,2.2,4,3.8s1.5,3.4,1.5,5.4s-0.5,3.8-1.5,5.4
	c-1,1.6-2.3,2.8-4,3.7S227.2,173.1,225,173.1z"/>
<path class="st10" d="M247.2,169.3c1.2,0,2.1-0.4,2.8-1.2c0.8-0.8,1.1-1.8,1.1-3.2s-0.4-2.4-1.1-3.1c-0.7-0.8-1.7-1.2-2.8-1.2
	s-2.1,0.4-2.9,1.2c-0.7,0.8-1.1,1.8-1.1,3.1s0.4,2.4,1.1,3.2C245.1,168.9,246.1,169.3,247.2,169.3z M248,156.9c1.5,0,2.8,0.3,3.9,1
	c1.2,0.7,2.1,1.6,2.8,2.8s1,2.6,1,4.2c0,1.6-0.3,3-1,4.2s-1.6,2.1-2.8,2.8s-2.5,1-3.9,1c-2,0-3.6-0.6-4.7-1.9v7.3l-4.5-1.2v-20h4.3
	v1.8C244.2,157.6,245.9,156.9,248,156.9z"/>
<path class="st10" d="M265.5,160.3c-1,0-1.9,0.3-2.6,0.9c-0.7,0.6-1.1,1.4-1.3,2.4h7.7c-0.2-1-0.6-1.8-1.3-2.3
	C267.3,160.6,266.5,160.3,265.5,160.3z M273.6,165c0,0.1,0,0.5-0.1,1.2h-11.8c0.2,1,0.7,1.7,1.5,2.3s1.8,0.8,3,0.8
	c0.8,0,1.5-0.1,2.1-0.3c0.6-0.3,1.2-0.6,1.8-1.2l2.4,2.6c-1.5,1.7-3.6,2.5-6.4,2.5c-1.8,0-3.3-0.3-4.7-1c-1.4-0.7-2.4-1.7-3.1-2.9
	s-1.1-2.6-1.1-4.1s0.4-2.9,1.1-4.1c0.7-1.2,1.7-2.2,3-2.9s2.7-1,4.3-1c1.5,0,2.9,0.3,4.2,1c1.2,0.7,2.2,1.6,2.9,2.8
	C273.2,162,273.6,163.4,273.6,165z"/>
<path class="st10" d="M285.5,156.9c1.9,0,3.5,0.6,4.7,1.7c1.2,1.2,1.8,2.9,1.8,5.2v8.9h-4.5v-8.2c0-1.2-0.3-2.2-0.8-2.8
	s-1.3-0.9-2.4-0.9s-2.1,0.4-2.7,1.1c-0.7,0.7-1,1.7-1,3.1v7.7H276v-15.6h4.3v1.8c0.6-0.7,1.3-1.2,2.2-1.5
	C283.4,157.1,284.4,156.9,285.5,156.9z"/>
<path class="st10" d="M226.3,197.5c1.2,0,2.2-0.2,2.8-0.6c0.6-0.4,1-1.1,1-2c0-1.8-1.3-2.7-3.8-2.7h-5.5v5.3H226.3z M220.8,183.4
	v5.1h4.7c1.2,0,2.1-0.2,2.7-0.6c0.6-0.4,0.9-1.1,0.9-1.9c0-0.8-0.3-1.5-0.9-1.9c-0.6-0.4-1.5-0.6-2.7-0.6h-4.7V183.4z M231.1,190
	c1.2,0.4,2.1,1.1,2.8,2s1,2,1,3.4c0,1.9-0.7,3.4-2.1,4.4c-1.4,1-3.4,1.5-6.1,1.5h-10.6v-21.6h10c2.5,0,4.4,0.5,5.7,1.5s2,2.4,2,4.1
	c0,1.1-0.2,2-0.7,2.8C232.6,188.9,232,189.6,231.1,190z"/>
<path class="st10" d="M245,197.6c1.2,0,2.1-0.4,2.9-1.2c0.8-0.8,1.1-2,1.1-3.4s-0.4-2.5-1.1-3.3c-0.7-0.8-1.7-1.3-2.9-1.3
	s-2.1,0.4-2.9,1.3c-0.8,0.8-1.1,1.9-1.1,3.3c0,1.4,0.4,2.5,1.1,3.4C242.9,197.2,243.9,197.6,245,197.6z M245,201.5
	c-1.7,0-3.2-0.4-4.5-1.1c-1.3-0.7-2.3-1.8-3.1-3.1c-0.7-1.3-1.1-2.8-1.1-4.4c0-1.6,0.4-3.1,1.1-4.4c0.7-1.3,1.8-2.3,3.1-3
	s2.8-1.1,4.5-1.1s3.1,0.4,4.4,1.1c1.3,0.7,2.3,1.7,3.1,3c0.7,1.3,1.1,2.8,1.1,4.4c0,1.6-0.4,3.1-1.1,4.4c-0.7,1.3-1.8,2.3-3.1,3.1
	C248.2,201.2,246.7,201.5,245,201.5z"/>
<path class="st10" d="M263.6,197.6c1.2,0,2.1-0.4,2.9-1.2s1.1-2,1.1-3.4s-0.4-2.5-1.1-3.3s-1.7-1.3-2.9-1.3c-1.2,0-2.1,0.4-2.9,1.3
	c-0.8,0.8-1.1,1.9-1.1,3.3c0,1.4,0.4,2.5,1.1,3.4C261.5,197.2,262.5,197.6,263.6,197.6z M263.6,201.5c-1.7,0-3.2-0.4-4.5-1.1
	c-1.3-0.7-2.3-1.8-3.1-3.1c-0.7-1.3-1.1-2.8-1.1-4.4c0-1.6,0.4-3.1,1.1-4.4c0.7-1.3,1.8-2.3,3.1-3c1.3-0.7,2.8-1.1,4.5-1.1
	s3.1,0.4,4.4,1.1c1.3,0.7,2.3,1.7,3.1,3c0.7,1.3,1.1,2.8,1.1,4.4c0,1.6-0.4,3.1-1.1,4.4c-0.7,1.3-1.8,2.3-3.1,3.1
	C266.8,201.2,265.3,201.5,263.6,201.5z"/>
<path class="st10" d="M284.9,200.5c-0.4,0.4-1,0.6-1.7,0.8c-0.6,0.2-1.3,0.2-2,0.2c-1.9,0-3.3-0.5-4.4-1.5c-1-1-1.5-2.5-1.5-4.5
	v-6.8h-2.4V185h2.4v-5.4l4.6,1.3v4h3.9v3.7h-3.9v6.8c0,0.7,0.2,1.2,0.5,1.6c0.4,0.4,0.8,0.6,1.5,0.6s1.3-0.2,1.8-0.6L284.9,200.5z"
	/>
<path class="st10" d="M294,201.5c-1.7,0-3.2-0.4-4.5-1.1c-1.3-0.7-2.4-1.8-3.1-3.1s-1.1-2.8-1.1-4.4c0-1.6,0.4-3.1,1.1-4.4
	c0.8-1.3,1.8-2.3,3.1-3c1.3-0.7,2.9-1.1,4.5-1.1c1.7,0,3.1,0.4,4.3,1.1c1.2,0.7,2.2,1.8,2.7,3.1l-3.5,2c-0.8-1.5-2-2.3-3.5-2.3
	c-1.2,0-2.2,0.4-3,1.2s-1.2,1.9-1.2,3.4c0,1.4,0.4,2.5,1.2,3.4c0.8,0.8,1.8,1.2,3,1.2c1.6,0,2.7-0.8,3.5-2.3l3.5,2
	c-0.6,1.3-1.5,2.3-2.7,3.1C297.1,201.2,295.7,201.5,294,201.5z"/>
<path class="st10" d="M309.1,198.3c0.8,0,1.5-0.2,2.1-0.6c0.6-0.4,1-1,1.3-1.7v-1.7h-3.1c-1.9,0-2.8,0.6-2.8,1.9
	c0,0.6,0.2,1.1,0.7,1.5C307.7,198.1,308.3,198.3,309.1,198.3z M309.5,184.4c2.4,0,4.3,0.6,5.6,1.9c1.3,1.2,2,3.1,2,5.5v9.5h-4.3
	v-2.1c-0.9,1.5-2.5,2.3-4.8,2.3c-1.2,0-2.3-0.2-3.2-0.6c-0.9-0.4-1.6-1-2-1.8c-0.5-0.8-0.7-1.6-0.7-2.6c0-1.5,0.5-2.8,1.6-3.6
	c1.1-0.9,2.8-1.3,5.1-1.3h3.6c0-1.1-0.3-1.9-0.9-2.4c-0.6-0.6-1.5-0.9-2.7-0.9c-0.8,0-1.7,0.1-2.5,0.4c-0.8,0.3-1.5,0.6-2,1.1
	l-1.6-3.4c0.9-0.6,1.9-1.1,3.1-1.5C306.9,184.6,308.2,184.4,309.5,184.4z"/>
<path class="st10" d="M340.7,184.4c2,0,3.5,0.6,4.7,1.9c1.2,1.2,1.8,3,1.8,5.5v9.5h-4.6v-8.8c0-1.3-0.3-2.3-0.8-2.9
	c-0.5-0.7-1.2-1-2.2-1c-1.1,0-1.9,0.4-2.5,1.1c-0.6,0.7-0.9,1.8-0.9,3.2v8.3h-4.6v-8.8c0-2.6-1-3.9-3-3.9c-1.1,0-1.9,0.4-2.5,1.1
	c-0.6,0.7-0.9,1.8-0.9,3.2v8.3h-4.6v-16.6h4.4v1.9c0.6-0.7,1.3-1.2,2.1-1.6c0.9-0.4,1.8-0.6,2.8-0.6c1.1,0,2.1,0.2,3,0.7
	s1.6,1.1,2.2,2c0.6-0.9,1.5-1.5,2.4-2C338.5,184.7,339.6,184.4,340.7,184.4z"/>
<path class="st10" d="M359.2,197.6c1.2,0,2.1-0.4,2.9-1.2s1.1-2,1.1-3.4s-0.4-2.5-1.1-3.3s-1.7-1.3-2.9-1.3c-1.2,0-2.1,0.4-2.9,1.3
	c-0.7,0.8-1.1,1.9-1.1,3.3c0,1.4,0.4,2.5,1.1,3.4C357.1,197.2,358,197.6,359.2,197.6z M360,184.4c1.5,0,2.8,0.4,4,1.1
	c1.2,0.7,2.2,1.7,2.8,3c0.7,1.3,1,2.8,1,4.5s-0.3,3.2-1,4.5s-1.6,2.3-2.8,3c-1.2,0.7-2.5,1.1-4,1.1c-2,0-3.6-0.7-4.7-2v9l-4.6-1.2
	v-22.6h4.4v1.9C356.2,185.1,357.8,184.4,360,184.4z"/>
<path class="st11" d="M167.7,185.4c10.1,0,18.2-8.1,18.2-18.2l0,0h-18.2v16.6l0,0V185.4L167.7,185.4z M167.7,185.4L167.7,185.4
	c-10.1,0-18.2-8.1-18.2-18.2c0-10,8.2-18.2,18.2-18.2c10.1,0,18.2,8.1,18.2,18.2h1.3c5.3,0,9.5,4.3,9.5,9.5c0,3.6-1.9,6.7-4.8,8.3
	c2.9,1.6,4.8,4.7,4.8,8.3c0,5.3-4.3,9.5-9.5,9.5h-19.5V185.4z"/>
<path class="st10" d="M1193.1,293.7c0-3.8-0.6-7-1.8-9.6c-1.2-2.6-2.9-4.6-5-5.9s-4.5-2-7.2-2s-5.1,0.7-7.2,2s-3.8,3.3-5,5.9
	s-1.8,5.8-1.8,9.6s0.6,7,1.8,9.6c1.2,2.6,2.9,4.6,5,5.9s4.5,2,7.2,2s5.1-0.7,7.2-2s3.8-3.3,5-5.9
	C1192.4,300.7,1193.1,297.5,1193.1,293.7z M1200,293.7c0,5-0.9,9.2-2.7,12.8c-1.8,3.6-4.3,6.3-7.5,8.2c-3.2,1.9-6.7,2.9-10.8,2.9
	c-4,0-7.6-1-10.8-2.9c-3.2-1.9-5.6-4.7-7.5-8.2c-1.8-3.6-2.7-7.8-2.7-12.8s0.9-9.2,2.7-12.8c1.8-3.6,4.3-6.3,7.5-8.2
	c3.2-1.9,6.8-2.9,10.8-2.9s7.6,1,10.8,2.9c3.2,1.9,5.7,4.7,7.5,8.2C1199.1,284.5,1200,288.8,1200,293.7z M1114.3,310.9h7.7
	c3.5,0,6.5-0.7,8.8-2s4.1-3.3,5.3-5.8c1.2-2.6,1.8-5.7,1.8-9.4c0-3.7-0.6-6.8-1.8-9.3c-1.2-2.5-2.9-4.5-5.2-5.8
	c-2.3-1.3-5.1-2-8.5-2h-8.1L1114.3,310.9L1114.3,310.9z M1122.4,317h-15.1v-46.5h15.5c4.6,0,8.5,0.9,11.8,2.8c3.3,1.8,5.8,4.5,7.5,8
	c1.8,3.5,2.6,7.6,2.6,12.4s-0.9,9-2.7,12.5c-1.8,3.5-4.3,6.2-7.6,8C1131.1,316.1,1127.1,317,1122.4,317z M1061.6,298.8h24.2v5.9
	h-24.2V298.8z M1060.3,317h-7.5l16.8-46.5h8.1l16.8,46.5h-7.5l-13.2-38.1h-0.4L1060.3,317z M1042.2,285.6h-7.1
	c-0.3-1.5-0.8-2.8-1.5-4s-1.7-2.1-2.7-2.9c-1.1-0.8-2.3-1.4-3.6-1.8c-1.3-0.4-2.7-0.6-4.2-0.6c-2.7,0-5.1,0.7-7.2,2
	c-2.1,1.3-3.8,3.3-5,5.9s-1.8,5.8-1.8,9.5c0,3.8,0.6,7,1.8,9.6s2.9,4.6,5,5.9s4.5,2,7.2,2c1.5,0,2.9-0.2,4.2-0.6s2.5-1,3.6-1.8
	s2-1.8,2.7-2.9c0.8-1.2,1.3-2.5,1.6-4h7.1c-0.4,2.3-1.1,4.4-2.2,6.3s-2.5,3.6-4.2,5s-3.6,2.4-5.8,3.2c-2.2,0.8-4.5,1.1-7.1,1.1
	c-4,0-7.6-1-10.8-2.9s-5.6-4.7-7.5-8.2c-1.8-3.6-2.7-7.8-2.7-12.8s0.9-9.2,2.7-12.8c1.8-3.6,4.3-6.3,7.5-8.2
	c3.2-1.9,6.7-2.9,10.8-2.9c2.5,0,4.8,0.4,6.9,1.1c2.2,0.7,4.1,1.7,5.8,3.1c1.7,1.3,3.1,3,4.2,5
	C1041.1,280.9,1041.9,283.1,1042.2,285.6z M987.3,270.5V317h-7v-46.5H987.3z M936.7,317v-46.5h28.9v6h-21.8v14.2h19.8v6h-19.8V317
	H936.7z M920.4,270.5V317h-7v-46.5H920.4z M863.3,276.5v-6h36v6h-14.5V317h-7v-40.5H863.3z M841.2,296l11.5,21h-8l-11.3-21H841.2z
	 M818.2,317v-46.5h16.6c3.6,0,6.6,0.6,9,1.9c2.4,1.2,4.2,3,5.4,5.2s1.8,4.7,1.8,7.6c0,2.8-0.6,5.4-1.8,7.5c-1.2,2.2-3,3.8-5.4,5
	s-5.4,1.8-9,1.8h-12.6v-6h11.9c2.3,0,4.1-0.3,5.5-1s2.5-1.6,3.2-2.8s1-2.7,1-4.5s-0.3-3.3-1-4.6c-0.7-1.3-1.7-2.3-3.2-3
	c-1.4-0.7-3.3-1-5.6-1h-8.8V317H818.2z M773.6,317v-46.5h29.2v6h-22.2v14.2h20.6v6h-20.6V311H803v6H773.6z M759.1,285.6H752
	c-0.3-1.5-0.8-2.8-1.5-4s-1.7-2.1-2.7-2.9s-2.3-1.4-3.6-1.8s-2.7-0.6-4.2-0.6c-2.7,0-5.1,0.7-7.2,2c-2.1,1.3-3.8,3.3-5,5.9
	s-1.8,5.8-1.8,9.5c0,3.8,0.6,7,1.8,9.6s2.9,4.6,5,5.9s4.5,2,7.2,2c1.5,0,2.9-0.2,4.2-0.6s2.5-1,3.6-1.8s2-1.8,2.7-2.9
	c0.8-1.2,1.3-2.5,1.6-4h7.1c-0.4,2.3-1.1,4.4-2.2,6.3c-1.1,1.9-2.5,3.6-4.2,5s-3.6,2.4-5.8,3.2c-2.2,0.8-4.5,1.1-7.1,1.1
	c-4,0-7.6-1-10.8-2.9s-5.6-4.7-7.5-8.2c-1.8-3.6-2.7-7.8-2.7-12.8s0.9-9.2,2.7-12.8c1.8-3.6,4.3-6.3,7.5-8.2
	c3.2-1.9,6.7-2.9,10.8-2.9c2.5,0,4.8,0.4,6.9,1.1c2.2,0.7,4.1,1.7,5.8,3.1c1.7,1.3,3.1,3,4.2,5C758,280.9,758.7,283.1,759.1,285.6z"
	/>
<path class="st10" d="M1125.4,342.7V366h-3.8l-11-15.9h-0.2V366h-4.2v-23.3h3.8l11,15.9h0.2v-15.9H1125.4z M1085.7,340.4l2.5-5.2h4
	l-3.5,5.2H1085.7z M1093.7,354.4c0-1.8-0.3-3.3-0.8-4.5s-1.3-2.1-2.3-2.8c-1-0.6-2.1-0.9-3.4-0.9s-2.4,0.3-3.4,0.9s-1.7,1.5-2.3,2.8
	c-0.5,1.2-0.8,2.7-0.8,4.5s0.3,3.3,0.8,4.5c0.6,1.2,1.3,2.1,2.3,2.8c1,0.6,2.1,0.9,3.4,0.9s2.4-0.3,3.4-0.9s1.7-1.5,2.3-2.8
	C1093.4,357.6,1093.7,356.1,1093.7,354.4z M1097.9,354.4c0,2.5-0.5,4.7-1.4,6.4c-0.9,1.8-2.2,3.1-3.8,4.1c-1.6,0.9-3.4,1.4-5.5,1.4
	c-2,0-3.9-0.5-5.5-1.4c-1.6-1-2.9-2.3-3.8-4.1c-0.9-1.8-1.4-3.9-1.4-6.4s0.5-4.7,1.4-6.4c0.9-1.8,2.2-3.2,3.8-4.1
	c1.6-0.9,3.4-1.4,5.5-1.4c2,0,3.9,0.5,5.5,1.4s2.9,2.3,3.8,4.1C1097.5,349.7,1097.9,351.9,1097.9,354.4z M1068.3,342.7V366h-4.2
	v-23.3H1068.3z M1055.9,350.6h-4.2c-0.1-0.7-0.3-1.3-0.7-1.9c-0.3-0.5-0.7-1-1.2-1.4s-1-0.7-1.7-0.9c-0.6-0.2-1.3-0.3-2-0.3
	c-1.3,0-2.4,0.3-3.4,1c-1,0.6-1.7,1.6-2.3,2.8c-0.6,1.2-0.8,2.7-0.8,4.4c0,1.8,0.3,3.3,0.8,4.5c0.6,1.2,1.3,2.1,2.3,2.8
	c1,0.6,2.1,0.9,3.4,0.9c0.7,0,1.3-0.1,2-0.3c0.6-0.2,1.2-0.5,1.6-0.8c0.5-0.4,0.9-0.8,1.2-1.3c0.3-0.5,0.6-1.1,0.7-1.8h4.2
	c-0.2,1.1-0.5,2.1-1,3.1s-1.2,1.8-2.1,2.6c-0.8,0.7-1.8,1.3-3,1.7c-1.1,0.4-2.4,0.6-3.8,0.6c-2,0-3.9-0.5-5.5-1.4s-2.9-2.3-3.8-4.1
	c-0.9-1.8-1.4-3.9-1.4-6.4s0.5-4.7,1.4-6.4c0.9-1.8,2.2-3.2,3.8-4.1s3.4-1.4,5.5-1.4c1.3,0,2.5,0.2,3.6,0.5c1.1,0.4,2.1,0.9,3,1.6
	s1.6,1.6,2.1,2.6C1055.3,348.1,1055.7,349.3,1055.9,350.6z M1012.7,356.9h12.3v3.4h-12.3V356.9z M1012.6,366h-4.5l8.2-23.3h5.2
	l8.2,23.3h-4.5l-6.2-18.5h-0.2L1012.6,366z M983.9,366v-2.6l11.9-17.1h-12v-3.5h17.2v2.6l-11.9,17.1h12v3.5H983.9z M975.5,342.7V366
	h-4.2v-23.3H975.5z M948.8,366v-23.3h4.2v19.7h10.2v3.5L948.8,366L948.8,366z M924.5,356.9h12.3v3.4h-12.3V356.9z M924.3,366h-4.5
	l8.2-23.3h5.2l8.2,23.3h-4.5l-6.2-18.5h-0.2L924.3,366z M912.4,342.7V366h-3.8l-11-15.9h-0.2V366h-4.2v-23.3h3.8l11,15.9h0.2v-15.9
	H912.4z M884.4,342.7V366h-4.2v-23.3H884.4z M857.1,366v-23.3H872v3.5h-10.7v6.3h9.7v3.5h-9.7v9.9h-4.2V366z M821.1,366v-23.3h15.1
	v3.5h-10.9v6.3h10.1v3.5h-10.1v6.4h11v3.5h-15.2V366z M797.8,362.4h3.5c1.6,0,3-0.3,4.1-0.9s1.9-1.5,2.4-2.7s0.8-2.7,0.8-4.5
	s-0.3-3.3-0.8-4.4c-0.5-1.2-1.4-2.1-2.4-2.6c-1.1-0.6-2.4-0.9-4-0.9h-3.6V362.4z M801.5,366h-7.9v-23.3h8c2.3,0,4.3,0.5,6,1.4
	s2.9,2.3,3.8,4c0.9,1.7,1.3,3.8,1.3,6.2c0,2.4-0.5,4.5-1.4,6.2s-2.2,3.1-3.9,4C805.9,365.5,803.9,366,801.5,366z"/>
<path class="st10" d="M1767.5,547h2v-2h-2V547z M1759.5,547h4v-2h-4V547z M1751.5,547h4v-2h-4V547z M1743.6,547h4v-2h-4V547z
	 M1735.6,547h4v-2h-4V547z M1727.6,547h4v-2h-4V547z M1719.6,547h4v-2h-4V547z M1711.6,547h4v-2h-4V547z M1703.7,547h4v-2h-4V547z
	 M1695.7,547h4v-2h-4V547z M1687.7,547h4v-2h-4V547z M1679.7,547h4v-2h-4V547z M1671.7,547h4v-2h-4V547z M1663.8,547h4v-2h-4V547z
	 M1655.8,547h4v-2h-4V547z M1647.8,547h4v-2h-4V547z M1639.8,547h4v-2h-4V547z M1631.8,547h4v-2h-4V547z M1623.9,547h4v-2h-4V547z
	 M1615.9,547h4v-2h-4V547z M1607.9,547h4v-2h-4V547z M1599.9,547h4v-2h-4V547z M1591.9,547h4v-2h-4V547z M1584,547h4v-2h-4V547z
	 M1576,547h4v-2h-4V547z M1568,547h4v-2h-4V547z M1560,547h4v-2h-4V547z M1552,547h4v-2h-4V547z M1544.1,547h4v-2h-4V547z
	 M1536.1,547h4v-2h-4V547z M1528.1,547h4v-2h-4V547z M1520.1,547h4v-2h-4V547z M1512.1,547h4v-2h-4V547z M1504.2,547h4v-2h-4V547z
	 M1496.2,547h4v-2h-4V547z M1488.2,547h4v-2h-4V547z M1480.2,547h4v-2h-4V547z M1472.2,547h4v-2h-4V547z M1464.3,547h4v-2h-4V547z
	 M1456.3,547h4v-2h-4V547z M1448.3,547h4v-2h-4V547z M1440.3,547h4v-2h-4V547z M1432.3,547h4v-2h-4V547z M1424.4,547h4v-2h-4V547z
	 M1416.4,547h4v-2h-4V547z M1408.4,547h4v-2h-4V547z M1400.4,547h4v-2h-4V547z M1392.4,547h4v-2h-4V547z M1384.5,547h4v-2h-4V547z
	 M1376.5,547h4v-2h-4V547z M1368.5,547h4v-2h-4V547z M1360.5,547h4v-2h-4V547z M1352.5,547h4v-2h-4V547z M1344.6,547h4v-2h-4V547z
	 M1336.6,547h4v-2h-4V547z M1328.6,547h4v-2h-4V547z M1320.6,547h4v-2h-4V547z M1312.6,547h4v-2h-4V547z M1304.6,547h4v-2h-4V547z
	 M1296.7,547h4v-2h-4V547z M1288.7,547h4v-2h-4V547z M1280.7,547h4v-2h-4V547z M1272.7,547h4v-2h-4V547z M1264.7,547h4v-2h-4V547z
	 M1256.8,547h4v-2h-4V547z M1248.8,547h4v-2h-4V547z M1240.8,547h4v-2h-4V547z M1232.8,547h4v-2h-4V547z M1224.8,547h4v-2h-4V547z
	 M1216.9,547h4v-2h-4V547z M1208.9,547h4v-2h-4V547z M1200.9,547h4v-2h-4V547z M1192.9,547h4v-2h-4V547z M1184.9,547h4v-2h-4V547z
	 M1177,547h4v-2h-4V547z M1169,547h4v-2h-4V547z M1161,547h4v-2h-4V547z M1153,547h4v-2h-4V547z M1145,547h4v-2h-4V547z M1137.1,547
	h4v-2h-4V547z M1129.1,547h4v-2h-4V547z M1121.1,547h4v-2h-4V547z M1113.1,547h4v-2h-4V547z M1105.1,547h4v-2h-4V547z M1097.2,547h4
	v-2h-4V547z M1089.2,547h4v-2h-4V547z M1081.2,547h4v-2h-4V547z M1073.2,547h4v-2h-4V547z M1065.2,547h4v-2h-4V547z M1057.3,547h4
	v-2h-4V547z M1049.3,547h4v-2h-4V547z M1041.3,547h4v-2h-4V547z M1033.3,547h4v-2h-4V547z M1025.3,547h4v-2h-4V547z M1017.4,547h4
	v-2h-4V547z M1009.4,547h4v-2h-4V547z M1001.4,547h4v-2h-4V547z M993.4,547h4v-2h-4V547z M985.4,547h4v-2h-4V547z M977.5,547h4v-2
	h-4V547z M969.5,547h4v-2h-4V547z M961.5,547h4v-2h-4V547z M953.5,547h4v-2h-4V547z M945.5,547h4v-2h-4V547z M937.6,547h4v-2h-4V547
	z M929.6,547h4v-2h-4V547z M921.6,547h4v-2h-4V547z M913.6,547h4v-2h-4V547z M905.6,547h4v-2h-4V547z M897.7,547h4v-2h-4V547z
	 M889.7,547h4v-2h-4V547z M881.7,547h4v-2h-4V547z M873.7,547h4v-2h-4V547z M865.7,547h4v-2h-4V547z M857.8,547h4v-2h-4V547z
	 M849.8,547h4v-2h-4V547z M841.8,547h4v-2h-4V547z M833.8,547h4v-2h-4V547z M825.8,547h4v-2h-4V547z M817.9,547h4v-2h-4V547z
	 M809.9,547h4v-2h-4V547z M801.9,547h4v-2h-4V547z M793.9,547h4v-2h-4V547z M785.9,547h4v-2h-4V547z M777.9,547h4v-2h-4V547z
	 M770,547h4v-2h-4V547z M762,547h4v-2h-4V547z M754,547h4v-2h-4V547z M746,547h4v-2h-4V547z M738,547h4v-2h-4V547z M730.1,547h4v-2
	h-4V547z M722.1,547h4v-2h-4V547z M714.1,547h4v-2h-4V547z M706.1,547h4v-2h-4V547z M698.1,547h4v-2h-4V547z M690.2,547h4v-2h-4V547
	z M682.2,547h4v-2h-4V547z M674.2,547h4v-2h-4V547z M666.2,547h4v-2h-4V547z M658.2,547h4v-2h-4V547z M650.3,547h4v-2h-4V547z
	 M642.3,547h4v-2h-4V547z M634.3,547h4v-2h-4V547z M626.3,547h4v-2h-4V547z M618.3,547h4v-2h-4V547z M610.4,547h4v-2h-4V547z
	 M602.4,547h4v-2h-4V547z M594.4,547h4v-2h-4V547z M586.4,547h4v-2h-4V547z M578.4,547h4v-2h-4V547z M570.5,547h4v-2h-4V547z
	 M562.5,547h4v-2h-4V547z M554.5,547h4v-2h-4V547z M546.5,547h4v-2h-4V547z M538.5,547h4v-2h-4V547z M530.6,547h4v-2h-4V547z
	 M522.6,547h4v-2h-4V547z M514.6,547h4v-2h-4V547z M506.6,547h4v-2h-4V547z M498.6,547h4v-2h-4V547z M490.7,547h4v-2h-4V547z
	 M482.7,547h4v-2h-4V547z M474.7,547h4v-2h-4V547z M466.7,547h4v-2h-4V547z M458.7,547h4v-2h-4V547z M450.8,547h4v-2h-4V547z
	 M442.8,547h4v-2h-4V547z M434.8,547h4v-2h-4V547z M426.8,547h4v-2h-4V547z M418.8,547h4v-2h-4V547z M410.9,547h4v-2h-4V547z
	 M402.9,547h4v-2h-4V547z M394.9,547h4v-2h-4V547z M386.9,547h4v-2h-4V547z M378.9,547h4v-2h-4V547z M371,547h4v-2h-4V547z M363,547
	h4v-2h-4V547z M355,547h4v-2h-4V547z M347,547h4v-2h-4V547z M339,547h4v-2h-4V547z M331.1,547h4v-2h-4V547z M323.1,547h4v-2h-4V547z
	 M315.1,547h4v-2h-4V547z M307.1,547h4v-2h-4V547z M299.1,547h4v-2h-4V547z M291.2,547h4v-2h-4V547z M283.2,547h4v-2h-4V547z
	 M275.2,547h4v-2h-4V547z M267.2,547h4v-2h-4V547z M259.2,547h4v-2h-4V547z M251.2,547h4v-2h-4V547z M243.3,547h4v-2h-4V547z
	 M235.3,547h4v-2h-4V547z M227.3,547h4v-2h-4V547z M219.3,547h4v-2h-4V547z M211.3,547h4v-2h-4V547z M203.4,547h4v-2h-4V547z
	 M195.4,547h4v-2h-4V547z M187.4,547h4v-2h-4V547z M179.4,547h4v-2h-4V547z M171.4,547h4v-2h-4V547z M163.5,547h4v-2h-4V547z
	 M155.5,547h4v-2h-4V547z M149.5,547h2v-2h-2V547z"/>
<path class="st10" d="M1229.7,642.8v7.2h-1.8v-12h1.8v1.9h0.2c0.3-0.6,0.7-1.1,1.3-1.5c0.6-0.4,1.3-0.6,2.2-0.6
	c0.8,0,1.5,0.2,2.1,0.5s1.1,0.8,1.4,1.5s0.5,1.5,0.5,2.5v7.6h-1.8v-7.5c0-0.9-0.2-1.7-0.7-2.2s-1.2-0.8-2-0.8
	c-0.6,0-1.1,0.1-1.6,0.4c-0.5,0.3-0.8,0.6-1.1,1.1S1229.7,642.1,1229.7,642.8z M1219.8,650.3c-1.2,0-2.2-0.3-3-0.8s-1.5-1.2-1.9-2.2
	c-0.4-0.9-0.7-2-0.7-3.2s0.2-2.3,0.7-3.2s1.1-1.7,1.9-2.2s1.8-0.8,2.8-0.8c0.6,0,1.2,0.1,1.9,0.3s1.2,0.5,1.7,1s0.9,1.1,1.2,1.8
	s0.4,1.7,0.4,2.8v0.8h-9.2V643h7.4c0-0.7-0.1-1.3-0.4-1.8s-0.6-1-1.1-1.3s-1.1-0.5-1.7-0.5c-0.7,0-1.4,0.2-1.9,0.5
	c-0.5,0.4-0.9,0.8-1.2,1.4s-0.4,1.2-0.4,1.9v1.1c0,0.9,0.2,1.7,0.5,2.3s0.8,1.1,1.3,1.4c0.6,0.3,1.2,0.5,2,0.5
	c0.5,0,0.9-0.1,1.3-0.2c0.4-0.1,0.7-0.3,1-0.6s0.5-0.6,0.7-1l1.8,0.5c-0.2,0.6-0.5,1.1-0.9,1.6s-1,0.8-1.6,1.1
	C1221.4,650.1,1220.6,650.3,1219.8,650.3z M1197.1,642.8v7.2h-1.8v-12h1.8v1.9h0.2c0.3-0.6,0.7-1.1,1.3-1.5c0.6-0.4,1.3-0.6,2.2-0.6
	c0.8,0,1.5,0.2,2.1,0.5s1.1,0.8,1.4,1.5s0.5,1.5,0.5,2.5v7.6h-1.8v-7.5c0-0.9-0.2-1.7-0.7-2.2s-1.2-0.8-2-0.8
	c-0.6,0-1.1,0.1-1.6,0.4c-0.5,0.3-0.8,0.6-1.1,1.1S1197.1,642.1,1197.1,642.8z M1186,636.4l1.9-3.6h2.2l-2.4,3.6H1186z
	 M1186.8,648.6c0.8,0,1.5-0.2,2-0.6c0.5-0.4,0.9-1,1.2-1.7s0.4-1.4,0.4-2.2s-0.1-1.5-0.4-2.2s-0.6-1.3-1.2-1.7s-1.2-0.6-2-0.6
	s-1.5,0.2-2,0.6s-0.9,1-1.2,1.7s-0.4,1.4-0.4,2.2s0.1,1.5,0.4,2.2s0.6,1.2,1.2,1.7C1185.3,648.4,1186,648.6,1186.8,648.6z
	 M1186.8,650.3c-1.1,0-2-0.3-2.9-0.8c-0.8-0.5-1.4-1.2-1.9-2.2c-0.5-0.9-0.7-2-0.7-3.2s0.2-2.3,0.7-3.3c0.5-0.9,1.1-1.7,1.9-2.2
	s1.8-0.8,2.9-0.8s2,0.3,2.8,0.8s1.5,1.2,1.9,2.2c0.5,0.9,0.7,2,0.7,3.3c0,1.2-0.2,2.3-0.7,3.2s-1.1,1.6-1.9,2.2
	C1188.8,650,1187.9,650.3,1186.8,650.3z M1177.4,636c-0.4,0-0.7-0.1-0.9-0.4c-0.3-0.2-0.4-0.5-0.4-0.9s0.1-0.6,0.4-0.9
	c0.3-0.2,0.6-0.4,0.9-0.4s0.7,0.1,0.9,0.4c0.3,0.2,0.4,0.5,0.4,0.9s-0.1,0.6-0.4,0.9C1178.1,635.9,1177.8,636,1177.4,636z
	 M1176.5,650v-12h1.8v12H1176.5z M1168.9,650.3c-1.1,0-2.1-0.3-2.9-0.8s-1.4-1.3-1.9-2.2s-0.7-2-0.7-3.2s0.2-2.3,0.7-3.2
	s1.1-1.7,1.9-2.2s1.8-0.8,2.8-0.8c0.8,0,1.6,0.2,2.3,0.5c0.7,0.3,1.2,0.8,1.7,1.3c0.4,0.6,0.7,1.2,0.8,2h-1.8
	c-0.1-0.5-0.5-1-0.9-1.5c-0.5-0.4-1.1-0.6-1.9-0.6c-0.7,0-1.3,0.2-1.9,0.6c-0.5,0.4-1,0.9-1.3,1.6c-0.3,0.7-0.4,1.5-0.4,2.4
	s0.1,1.7,0.4,2.4s0.7,1.2,1.2,1.6c0.5,0.4,1.2,0.6,1.9,0.6c0.5,0,0.9-0.1,1.3-0.2s0.7-0.4,1-0.7s0.5-0.7,0.6-1.1h1.8
	c-0.1,0.7-0.4,1.3-0.8,1.9c-0.4,0.6-0.9,1-1.6,1.3C1170.5,650.1,1169.8,650.3,1168.9,650.3z M1155.2,648.6c0.7,0,1.3-0.1,1.8-0.4
	c0.5-0.3,0.9-0.7,1.1-1.1c0.3-0.5,0.4-0.9,0.4-1.4V644c-0.1,0.1-0.2,0.2-0.5,0.3s-0.6,0.1-0.9,0.2c-0.3,0.1-0.7,0.1-1,0.1
	s-0.6,0.1-0.8,0.1c-0.5,0.1-0.9,0.2-1.3,0.3s-0.7,0.3-1,0.6c-0.2,0.3-0.4,0.6-0.4,1.1c0,0.6,0.2,1.1,0.7,1.5
	C1153.8,648.5,1154.5,648.6,1155.2,648.6z M1154.9,650.3c-0.8,0-1.5-0.1-2.1-0.4c-0.6-0.3-1.1-0.7-1.5-1.3s-0.5-1.2-0.5-2
	c0-0.7,0.1-1.2,0.4-1.7c0.3-0.4,0.6-0.8,1.1-1s1-0.4,1.5-0.5c0.6-0.1,1.1-0.2,1.7-0.3c0.7-0.1,1.3-0.2,1.8-0.2
	c0.5-0.1,0.8-0.1,1-0.3c0.2-0.1,0.3-0.3,0.3-0.6v-0.1c0-0.8-0.2-1.4-0.6-1.8c-0.4-0.4-1-0.6-1.9-0.6s-1.6,0.2-2.1,0.6
	s-0.9,0.8-1.1,1.2l-1.8-0.6c0.3-0.7,0.7-1.3,1.2-1.7s1.1-0.7,1.7-0.9s1.2-0.2,1.8-0.2c0.4,0,0.8,0,1.3,0.1s1,0.3,1.5,0.6
	s0.9,0.7,1.2,1.3s0.5,1.3,0.5,2.3v7.9h-1.8v-1.6h-0.1c-0.1,0.3-0.3,0.5-0.6,0.8c-0.3,0.3-0.7,0.5-1.2,0.8S1155.6,650.3,1154.9,650.3
	z M1143.7,650.3c-1.1,0-2.1-0.3-2.9-0.8s-1.4-1.3-1.9-2.2s-0.7-2-0.7-3.2s0.2-2.3,0.7-3.2s1.1-1.7,1.9-2.2s1.8-0.8,2.8-0.8
	c0.8,0,1.6,0.2,2.3,0.5c0.7,0.3,1.2,0.8,1.7,1.3c0.4,0.6,0.7,1.2,0.8,2h-1.8c-0.1-0.5-0.5-1-0.9-1.5c-0.5-0.4-1.1-0.6-1.9-0.6
	c-0.7,0-1.3,0.2-1.9,0.6c-0.5,0.4-1,0.9-1.3,1.6c-0.3,0.7-0.4,1.5-0.4,2.4s0.1,1.7,0.4,2.4s0.7,1.2,1.2,1.6c0.5,0.4,1.2,0.6,1.9,0.6
	c0.5,0,0.9-0.1,1.3-0.2s0.7-0.4,1-0.7s0.5-0.7,0.6-1.1h1.8c-0.1,0.7-0.4,1.3-0.8,1.9c-0.4,0.6-0.9,1-1.6,1.3
	C1145.4,650.1,1144.6,650.3,1143.7,650.3z M1134.4,636c-0.4,0-0.7-0.1-0.9-0.4c-0.3-0.2-0.4-0.5-0.4-0.9s0.1-0.6,0.4-0.9
	c0.3-0.2,0.6-0.4,0.9-0.4s0.7,0.1,0.9,0.4c0.3,0.2,0.4,0.5,0.4,0.9s-0.1,0.6-0.4,0.9S1134.7,636,1134.4,636z M1133.4,650v-12h1.8v12
	H1133.4z M1126.1,650v-13.7c0-0.7,0.2-1.3,0.5-1.7c0.3-0.5,0.7-0.8,1.3-1s1.1-0.3,1.6-0.3s0.8,0,1.1,0.1c0.3,0.1,0.5,0.1,0.6,0.2
	l-0.5,1.6c-0.1,0-0.2-0.1-0.4-0.1c-0.2,0-0.4-0.1-0.6-0.1c-0.6,0-1,0.2-1.3,0.5s-0.4,0.8-0.4,1.4V650H1126.1z M1130.6,638v1.6h-6.5
	V638H1130.6z M1120.8,636c-0.4,0-0.7-0.1-0.9-0.4c-0.3-0.2-0.4-0.5-0.4-0.9s0.1-0.6,0.4-0.9c0.3-0.2,0.6-0.4,0.9-0.4
	s0.7,0.1,0.9,0.4c0.3,0.2,0.4,0.5,0.4,0.9s-0.1,0.6-0.4,0.9S1121.1,636,1120.8,636z M1119.8,650v-12h1.8v12H1119.8z M1112.4,635.1
	h1.8v11.4c0,0.5,0.1,0.9,0.2,1.2c0.2,0.3,0.4,0.4,0.6,0.5s0.5,0.1,0.8,0.1c0.2,0,0.4,0,0.5,0s0.2,0,0.3-0.1l0.4,1.7
	c-0.1,0-0.3,0.1-0.5,0.1c-0.2,0.1-0.5,0.1-0.9,0.1c-0.5,0-1-0.1-1.5-0.3s-0.9-0.6-1.2-1c-0.3-0.5-0.5-1-0.5-1.7L1112.4,635.1
	L1112.4,635.1z M1116.8,638v1.6h-6.2V638H1116.8z M1102.5,650v-12h1.8v1.8h0.1c0.2-0.6,0.6-1.1,1.2-1.4c0.6-0.4,1.2-0.6,1.9-0.6
	c0.1,0,0.3,0,0.5,0s0.4,0,0.5,0v1.9c-0.1,0-0.2,0-0.4-0.1c-0.2,0-0.5-0.1-0.7-0.1c-0.6,0-1.1,0.1-1.6,0.4c-0.5,0.2-0.8,0.6-1.1,1
	c-0.3,0.4-0.4,0.9-0.4,1.4v7.6L1102.5,650L1102.5,650z M1094.5,650.3c-1.2,0-2.2-0.3-3-0.8s-1.5-1.2-1.9-2.2c-0.4-0.9-0.7-2-0.7-3.2
	s0.2-2.3,0.7-3.2s1.1-1.7,1.9-2.2s1.8-0.8,2.8-0.8c0.6,0,1.2,0.1,1.9,0.3s1.2,0.5,1.7,1s0.9,1.1,1.2,1.8s0.4,1.7,0.4,2.8v0.8h-9.2
	V643h7.4c0-0.7-0.1-1.3-0.4-1.8s-0.6-1-1.1-1.3s-1.1-0.5-1.7-0.5c-0.7,0-1.4,0.2-1.9,0.5c-0.5,0.4-0.9,0.8-1.2,1.4
	c-0.3,0.6-0.4,1.2-0.4,1.9v1.1c0,0.9,0.2,1.7,0.5,2.3s0.8,1.1,1.3,1.4c0.6,0.3,1.2,0.5,2,0.5c0.5,0,0.9-0.1,1.3-0.2
	c0.4-0.1,0.7-0.3,1-0.6s0.5-0.6,0.7-1l1.8,0.5c-0.2,0.6-0.5,1.1-0.9,1.6s-1,0.8-1.6,1.1C1096,650.1,1095.3,650.3,1094.5,650.3z
	 M1081.8,650.3c-1.1,0-2.1-0.3-2.9-0.8s-1.4-1.3-1.9-2.2s-0.7-2-0.7-3.2s0.2-2.3,0.7-3.2s1.1-1.7,1.9-2.2s1.8-0.8,2.8-0.8
	c0.8,0,1.6,0.2,2.3,0.5c0.7,0.3,1.2,0.8,1.7,1.3c0.4,0.6,0.7,1.2,0.8,2h-1.8c-0.1-0.5-0.5-1-0.9-1.5c-0.5-0.4-1.1-0.6-1.9-0.6
	c-0.7,0-1.3,0.2-1.9,0.6c-0.5,0.4-1,0.9-1.3,1.6c-0.3,0.7-0.4,1.5-0.4,2.4s0.1,1.7,0.4,2.4s0.7,1.2,1.2,1.6c0.5,0.4,1.2,0.6,1.9,0.6
	c0.5,0,0.9-0.1,1.3-0.2s0.7-0.4,1-0.7s0.5-0.7,0.6-1.1h1.8c-0.1,0.7-0.4,1.3-0.8,1.9c-0.4,0.6-0.9,1-1.6,1.3
	C1083.5,650.1,1082.7,650.3,1081.8,650.3z M1061.7,648.6c0.7,0,1.3-0.1,1.8-0.4c0.5-0.3,0.9-0.7,1.1-1.1c0.3-0.5,0.4-0.9,0.4-1.4
	V644c-0.1,0.1-0.2,0.2-0.5,0.3s-0.6,0.1-0.9,0.2c-0.3,0.1-0.7,0.1-1,0.1s-0.6,0.1-0.8,0.1c-0.5,0.1-0.9,0.2-1.3,0.3s-0.7,0.3-1,0.6
	c-0.2,0.3-0.4,0.6-0.4,1.1c0,0.6,0.2,1.1,0.7,1.5C1060.4,648.5,1061,648.6,1061.7,648.6z M1061.4,650.3c-0.8,0-1.5-0.1-2.1-0.4
	c-0.6-0.3-1.1-0.7-1.5-1.3s-0.5-1.2-0.5-2c0-0.7,0.1-1.2,0.4-1.7c0.3-0.4,0.6-0.8,1.1-1s1-0.4,1.5-0.5c0.6-0.1,1.1-0.2,1.7-0.3
	c0.7-0.1,1.3-0.2,1.8-0.2c0.5-0.1,0.8-0.1,1-0.3c0.2-0.1,0.3-0.3,0.3-0.6v-0.1c0-0.8-0.2-1.4-0.6-1.8c-0.4-0.4-1-0.6-1.9-0.6
	s-1.6,0.2-2.1,0.6s-0.9,0.8-1.1,1.2l-1.8-0.6c0.3-0.7,0.7-1.3,1.2-1.7s1.1-0.7,1.7-0.9s1.2-0.2,1.8-0.2c0.4,0,0.8,0,1.3,0.1
	s1,0.3,1.5,0.6s0.9,0.7,1.2,1.3s0.5,1.3,0.5,2.3v7.9h-1.8v-1.6h-0.1c-0.1,0.3-0.3,0.5-0.6,0.8c-0.3,0.3-0.7,0.5-1.2,0.8
	S1062.1,650.3,1061.4,650.3z M1054.3,634v16h-1.8v-16H1054.3z M1038.1,650.3c-1.2,0-2.2-0.3-3-0.8s-1.5-1.2-1.9-2.2
	c-0.4-0.9-0.7-2-0.7-3.2s0.2-2.3,0.7-3.2s1.1-1.7,1.9-2.2s1.8-0.8,2.8-0.8c0.6,0,1.2,0.1,1.9,0.3s1.2,0.5,1.7,1s0.9,1.1,1.2,1.8
	s0.4,1.7,0.4,2.8v0.8h-9.2V643h7.4c0-0.7-0.1-1.3-0.4-1.8s-0.6-1-1.1-1.3s-1.1-0.5-1.7-0.5c-0.7,0-1.4,0.2-1.9,0.5
	c-0.5,0.4-0.9,0.8-1.2,1.4c-0.3,0.6-0.4,1.2-0.4,1.9v1.1c0,0.9,0.2,1.7,0.5,2.3s0.8,1.1,1.3,1.4c0.6,0.3,1.2,0.5,2,0.5
	c0.5,0,0.9-0.1,1.3-0.2c0.4-0.1,0.7-0.3,1-0.6s0.5-0.6,0.7-1l1.8,0.5c-0.2,0.6-0.5,1.1-0.9,1.6s-1,0.8-1.6,1.1
	C1039.6,650.1,1038.9,650.3,1038.1,650.3z M1025.8,635.1h1.8v11.4c0,0.5,0.1,0.9,0.2,1.2c0.2,0.3,0.4,0.4,0.6,0.5s0.5,0.1,0.8,0.1
	c0.2,0,0.4,0,0.5,0s0.2,0,0.3-0.1l0.4,1.7c-0.1,0-0.3,0.1-0.5,0.1c-0.2,0.1-0.5,0.1-0.9,0.1c-0.5,0-1-0.1-1.5-0.3s-0.9-0.6-1.2-1
	c-0.3-0.5-0.5-1-0.5-1.7L1025.8,635.1L1025.8,635.1z M1030.2,638v1.6h-6.2V638H1030.2z M1013.7,642.8v7.2h-1.8v-12h1.8v1.9h0.2
	c0.3-0.6,0.7-1.1,1.3-1.5s1.3-0.6,2.2-0.6c0.8,0,1.5,0.2,2.1,0.5s1.1,0.8,1.4,1.5c0.3,0.7,0.5,1.5,0.5,2.5v7.6h-1.8v-7.5
	c0-0.9-0.2-1.7-0.7-2.2s-1.2-0.8-2-0.8c-0.6,0-1.1,0.1-1.6,0.4c-0.5,0.3-0.8,0.6-1.1,1.1S1013.7,642.1,1013.7,642.8z M1003.9,650.3
	c-1.2,0-2.2-0.3-3-0.8s-1.5-1.2-1.9-2.2c-0.4-0.9-0.7-2-0.7-3.2s0.2-2.3,0.7-3.2s1.1-1.7,1.9-2.2c0.8-0.5,1.8-0.8,2.8-0.8
	c0.6,0,1.2,0.1,1.9,0.3s1.2,0.5,1.7,1s0.9,1.1,1.2,1.8s0.4,1.7,0.4,2.8v0.8h-9.2V643h7.4c0-0.7-0.1-1.3-0.4-1.8
	c-0.3-0.5-0.6-1-1.1-1.3s-1.1-0.5-1.7-0.5c-0.7,0-1.4,0.2-1.9,0.5c-0.5,0.4-0.9,0.8-1.2,1.4s-0.4,1.2-0.4,1.9v1.1
	c0,0.9,0.2,1.7,0.5,2.3s0.8,1.1,1.3,1.4c0.6,0.3,1.2,0.5,2,0.5c0.5,0,0.9-0.1,1.3-0.2c0.4-0.1,0.7-0.3,1-0.6s0.5-0.6,0.7-1l1.8,0.5
	c-0.2,0.6-0.5,1.1-0.9,1.6s-1,0.8-1.6,1.1C1005.4,650.1,1004.7,650.3,1003.9,650.3z M979.5,650v-12h1.8v1.9h0.2
	c0.2-0.6,0.7-1.1,1.2-1.5c0.6-0.4,1.2-0.5,2-0.5s1.5,0.2,2,0.5c0.5,0.4,0.9,0.9,1.2,1.5h0.1c0.3-0.6,0.8-1.1,1.4-1.5
	c0.6-0.4,1.4-0.6,2.2-0.6c1.1,0,2,0.3,2.6,1c0.7,0.7,1,1.7,1,3.1v8h-1.8v-8c0-0.9-0.2-1.5-0.7-1.9s-1.1-0.6-1.7-0.6
	c-0.8,0-1.5,0.3-2,0.8s-0.7,1.1-0.7,1.9v7.8h-1.9v-8.2c0-0.7-0.2-1.2-0.7-1.6c-0.4-0.4-1-0.6-1.7-0.6c-0.5,0-0.9,0.1-1.3,0.4
	c-0.4,0.3-0.7,0.6-1,1.1c-0.2,0.4-0.4,1-0.4,1.6v7.5h-1.8V650z M970.7,648.6c0.7,0,1.3-0.1,1.8-0.4c0.5-0.3,0.9-0.7,1.1-1.1
	c0.3-0.5,0.4-0.9,0.4-1.4V644c-0.1,0.1-0.2,0.2-0.5,0.3s-0.6,0.1-0.9,0.2c-0.3,0.1-0.7,0.1-1,0.1s-0.6,0.1-0.8,0.1
	c-0.5,0.1-0.9,0.2-1.3,0.3c-0.4,0.1-0.7,0.3-1,0.6c-0.2,0.3-0.4,0.6-0.4,1.1c0,0.6,0.2,1.1,0.7,1.5
	C969.4,648.5,970,648.6,970.7,648.6z M970.4,650.3c-0.8,0-1.5-0.1-2.1-0.4c-0.6-0.3-1.1-0.7-1.5-1.3s-0.5-1.2-0.5-2
	c0-0.7,0.1-1.2,0.4-1.7c0.3-0.4,0.6-0.8,1.1-1s1-0.4,1.5-0.5c0.6-0.1,1.1-0.2,1.7-0.3c0.7-0.1,1.3-0.2,1.8-0.2
	c0.5-0.1,0.8-0.1,1-0.3c0.2-0.1,0.3-0.3,0.3-0.6v-0.1c0-0.8-0.2-1.4-0.6-1.8c-0.4-0.4-1-0.6-1.9-0.6s-1.6,0.2-2.1,0.6
	s-0.9,0.8-1.1,1.2l-1.8-0.6c0.3-0.7,0.7-1.3,1.2-1.7s1.1-0.7,1.7-0.9c0.6-0.2,1.2-0.2,1.8-0.2c0.4,0,0.8,0,1.3,0.1s1,0.3,1.5,0.6
	s0.9,0.7,1.2,1.3s0.5,1.3,0.5,2.3v7.9H974v-1.6h0c-0.1,0.3-0.3,0.5-0.6,0.8s-0.7,0.5-1.2,0.8S971.1,650.3,970.4,650.3z M962.4,636
	c-0.4,0-0.7-0.1-0.9-0.4c-0.3-0.2-0.4-0.5-0.4-0.9s0.1-0.6,0.4-0.9c0.3-0.2,0.6-0.4,0.9-0.4s0.7,0.1,0.9,0.4
	c0.3,0.2,0.4,0.5,0.4,0.9s-0.1,0.6-0.4,0.9S962.7,636,962.4,636z M961.4,650v-12h1.8v12H961.4z M953,650v-12h1.8v1.8h0.1
	c0.2-0.6,0.6-1.1,1.2-1.4s1.2-0.6,1.9-0.6c0.1,0,0.3,0,0.5,0s0.4,0,0.5,0v1.9c-0.1,0-0.2,0-0.4-0.1c-0.2,0-0.5-0.1-0.7-0.1
	c-0.6,0-1.1,0.1-1.6,0.4c-0.5,0.2-0.8,0.6-1.1,1s-0.4,0.9-0.4,1.4v7.6L953,650L953,650z M944.6,648.6c0.8,0,1.5-0.2,2-0.6
	c0.5-0.4,0.9-1,1.2-1.7s0.4-1.4,0.4-2.2s-0.1-1.5-0.4-2.2s-0.6-1.3-1.2-1.7s-1.2-0.6-2-0.6s-1.5,0.2-2,0.6s-0.9,1-1.2,1.7
	s-0.4,1.4-0.4,2.2s0.1,1.5,0.4,2.2s0.6,1.2,1.2,1.7C943.1,648.4,943.7,648.6,944.6,648.6z M944.6,650.3c-1.1,0-2-0.3-2.9-0.8
	c-0.8-0.5-1.4-1.2-1.9-2.2c-0.5-0.9-0.7-2-0.7-3.2s0.2-2.3,0.7-3.3c0.5-0.9,1.1-1.7,1.9-2.2c0.8-0.5,1.8-0.8,2.9-0.8s2,0.3,2.8,0.8
	s1.5,1.2,1.9,2.2c0.5,0.9,0.7,2,0.7,3.3c0,1.2-0.2,2.3-0.7,3.2s-1.1,1.6-1.9,2.2C946.6,650,945.6,650.3,944.6,650.3z M932.4,635.1
	h1.8v11.4c0,0.5,0.1,0.9,0.2,1.2c0.2,0.3,0.4,0.4,0.6,0.5c0.2,0.1,0.5,0.1,0.8,0.1c0.2,0,0.4,0,0.5,0s0.2,0,0.3-0.1l0.4,1.7
	c-0.1,0-0.3,0.1-0.5,0.1c-0.2,0.1-0.5,0.1-0.9,0.1c-0.5,0-1-0.1-1.5-0.3s-0.9-0.6-1.2-1c-0.3-0.5-0.5-1-0.5-1.7L932.4,635.1
	L932.4,635.1z M936.8,638v1.6h-6.2V638H936.8z M924,650.3c-1.1,0-2.1-0.3-2.9-0.8s-1.4-1.3-1.9-2.2s-0.7-2-0.7-3.2s0.2-2.3,0.7-3.2
	s1.1-1.7,1.9-2.2c0.8-0.5,1.8-0.8,2.8-0.8c0.8,0,1.6,0.2,2.3,0.5s1.2,0.8,1.7,1.3s0.7,1.2,0.8,2h-1.8c-0.1-0.5-0.5-1-0.9-1.5
	c-0.5-0.4-1.1-0.6-1.9-0.6c-0.7,0-1.3,0.2-1.9,0.6c-0.5,0.4-1,0.9-1.3,1.6c-0.3,0.7-0.4,1.5-0.4,2.4s0.1,1.7,0.4,2.4
	c0.3,0.7,0.7,1.2,1.2,1.6c0.5,0.4,1.2,0.6,1.9,0.6c0.5,0,0.9-0.1,1.3-0.2s0.7-0.4,1-0.7s0.5-0.7,0.6-1.1h1.8
	c-0.1,0.7-0.4,1.3-0.8,1.9c-0.4,0.6-0.9,1-1.6,1.3C925.6,650.1,924.9,650.3,924,650.3z M910.3,648.6c0.7,0,1.3-0.1,1.8-0.4
	c0.5-0.3,0.9-0.7,1.1-1.1c0.3-0.5,0.4-0.9,0.4-1.4V644c-0.1,0.1-0.2,0.2-0.5,0.3s-0.6,0.1-0.9,0.2c-0.3,0.1-0.7,0.1-1,0.1
	s-0.6,0.1-0.8,0.1c-0.5,0.1-0.9,0.2-1.3,0.3c-0.4,0.1-0.7,0.3-1,0.6c-0.2,0.3-0.4,0.6-0.4,1.1c0,0.6,0.2,1.1,0.7,1.5
	C909,648.5,909.6,648.6,910.3,648.6z M910,650.3c-0.8,0-1.5-0.1-2.1-0.4c-0.6-0.3-1.1-0.7-1.5-1.3s-0.5-1.2-0.5-2
	c0-0.7,0.1-1.2,0.4-1.7c0.3-0.4,0.6-0.8,1.1-1s1-0.4,1.5-0.5c0.6-0.1,1.1-0.2,1.7-0.3c0.7-0.1,1.3-0.2,1.8-0.2
	c0.5-0.1,0.8-0.1,1-0.3c0.2-0.1,0.3-0.3,0.3-0.6v-0.1c0-0.8-0.2-1.4-0.6-1.8c-0.4-0.4-1-0.6-1.9-0.6s-1.6,0.2-2.1,0.6
	s-0.9,0.8-1.1,1.2l-1.8-0.6c0.3-0.7,0.7-1.3,1.2-1.7s1.1-0.7,1.7-0.9c0.6-0.2,1.2-0.2,1.8-0.2c0.4,0,0.8,0,1.3,0.1s1,0.3,1.5,0.6
	s0.9,0.7,1.2,1.3s0.5,1.3,0.5,2.3v7.9h-1.8v-1.6h-0.1c-0.1,0.3-0.3,0.5-0.6,0.8s-0.7,0.5-1.2,0.8S910.7,650.3,910,650.3z M899.5,650
	v-13.7c0-0.7,0.2-1.3,0.5-1.7s0.7-0.8,1.3-1s1.1-0.3,1.6-0.3s0.8,0,1.1,0.1s0.5,0.1,0.6,0.2l-0.5,1.6c-0.1,0-0.2-0.1-0.4-0.1
	s-0.4-0.1-0.6-0.1c-0.6,0-1,0.2-1.3,0.5s-0.4,0.8-0.4,1.4V650H899.5z M904,638v1.6h-6.5V638H904z M895.5,640.7l-1.7,0.5
	c-0.1-0.3-0.3-0.5-0.5-0.8s-0.5-0.5-0.8-0.7s-0.8-0.3-1.3-0.3c-0.7,0-1.3,0.2-1.8,0.5s-0.7,0.8-0.7,1.3s0.2,0.8,0.5,1.1
	s0.9,0.5,1.6,0.7l1.8,0.4c1.1,0.3,1.9,0.7,2.4,1.2s0.8,1.2,0.8,2.1c0,0.7-0.2,1.3-0.6,1.8c-0.4,0.5-0.9,1-1.6,1.3s-1.5,0.5-2.5,0.5
	c-1.2,0-2.2-0.3-3-0.8s-1.3-1.3-1.5-2.3l1.8-0.4c0.2,0.6,0.5,1.1,0.9,1.5c0.5,0.3,1.1,0.5,1.8,0.5c0.9,0,1.5-0.2,2-0.5
	c0.5-0.4,0.8-0.8,0.8-1.3c0-0.4-0.1-0.8-0.4-1c-0.3-0.3-0.7-0.5-1.3-0.6l-2-0.5c-1.1-0.3-1.9-0.7-2.4-1.2c-0.5-0.6-0.8-1.2-0.8-2.1
	c0-0.7,0.2-1.3,0.6-1.8c0.4-0.5,0.9-0.9,1.6-1.2c0.7-0.3,1.4-0.4,2.3-0.4c1.2,0,2.1,0.3,2.8,0.8
	C894.7,639.1,895.2,639.8,895.5,640.7z M882.5,636c-0.4,0-0.7-0.1-0.9-0.4c-0.3-0.2-0.4-0.5-0.4-0.9s0.1-0.6,0.4-0.9
	c0.3-0.2,0.6-0.4,0.9-0.4s0.7,0.1,0.9,0.4c0.3,0.2,0.4,0.5,0.4,0.9s-0.1,0.6-0.4,0.9S882.8,636,882.5,636z M881.5,650v-12h1.8v12
	H881.5z M874.1,635.1h1.8v11.4c0,0.5,0.1,0.9,0.2,1.2c0.2,0.3,0.4,0.4,0.6,0.5c0.2,0.1,0.5,0.1,0.8,0.1c0.2,0,0.4,0,0.5,0
	s0.2,0,0.3-0.1l0.4,1.7c-0.1,0-0.3,0.1-0.5,0.1c-0.2,0.1-0.5,0.1-0.9,0.1c-0.5,0-1-0.1-1.5-0.3s-0.9-0.6-1.2-1
	c-0.3-0.5-0.5-1-0.5-1.7L874.1,635.1L874.1,635.1z M878.5,638v1.6h-6.2V638H878.5z M864.5,648.6c0.7,0,1.3-0.1,1.8-0.4
	c0.5-0.3,0.9-0.7,1.1-1.1c0.3-0.5,0.4-0.9,0.4-1.4V644c-0.1,0.1-0.2,0.2-0.5,0.3s-0.6,0.1-0.9,0.2c-0.3,0.1-0.7,0.1-1,0.1
	s-0.6,0.1-0.8,0.1c-0.5,0.1-0.9,0.2-1.3,0.3c-0.4,0.1-0.7,0.3-1,0.6c-0.2,0.3-0.4,0.6-0.4,1.1c0,0.6,0.2,1.1,0.7,1.5
	C863.2,648.5,863.8,648.6,864.5,648.6z M864.2,650.3c-0.8,0-1.5-0.1-2.1-0.4c-0.6-0.3-1.1-0.7-1.5-1.3s-0.5-1.2-0.5-2
	c0-0.7,0.1-1.2,0.4-1.7c0.3-0.4,0.6-0.8,1.1-1s1-0.4,1.5-0.5c0.6-0.1,1.1-0.2,1.7-0.3c0.7-0.1,1.3-0.2,1.8-0.2
	c0.5-0.1,0.8-0.1,1-0.3c0.2-0.1,0.3-0.3,0.3-0.6v-0.1c0-0.8-0.2-1.4-0.6-1.8c-0.4-0.4-1-0.6-1.9-0.6s-1.6,0.2-2.1,0.6
	s-0.9,0.8-1.1,1.2l-1.8-0.6c0.3-0.7,0.7-1.3,1.2-1.7s1.1-0.7,1.7-0.9c0.6-0.2,1.2-0.2,1.8-0.2c0.4,0,0.8,0,1.3,0.1s1,0.3,1.5,0.6
	s0.9,0.7,1.2,1.3s0.5,1.3,0.5,2.3v7.9h-1.8v-1.6h-0.1c-0.1,0.3-0.3,0.5-0.6,0.8s-0.7,0.5-1.2,0.8S864.9,650.3,864.2,650.3z
	 M857.5,640.7l-1.7,0.5c-0.1-0.3-0.3-0.5-0.5-0.8s-0.5-0.5-0.8-0.7s-0.8-0.3-1.3-0.3c-0.7,0-1.3,0.2-1.8,0.5s-0.7,0.8-0.7,1.3
	s0.2,0.8,0.5,1.1s0.9,0.5,1.6,0.7l1.8,0.4c1.1,0.3,1.9,0.7,2.4,1.2s0.8,1.2,0.8,2.1c0,0.7-0.2,1.3-0.6,1.8c-0.4,0.5-0.9,1-1.6,1.3
	s-1.5,0.5-2.5,0.5c-1.2,0-2.2-0.3-3-0.8s-1.3-1.3-1.5-2.3l1.8-0.4c0.2,0.6,0.5,1.1,0.9,1.5c0.5,0.3,1.1,0.5,1.8,0.5
	c0.9,0,1.5-0.2,2-0.5c0.5-0.4,0.8-0.8,0.8-1.3c0-0.4-0.1-0.8-0.4-1c-0.3-0.3-0.7-0.5-1.3-0.6l-2-0.5c-1.1-0.3-1.9-0.7-2.4-1.2
	c-0.5-0.6-0.8-1.2-0.8-2.1c0-0.7,0.2-1.3,0.6-1.8c0.4-0.5,0.9-0.9,1.6-1.2c0.7-0.3,1.4-0.4,2.3-0.4c1.2,0,2.1,0.3,2.8,0.8
	C856.7,639.1,857.2,639.8,857.5,640.7z M834.1,648.6c0.8,0,1.5-0.2,2-0.6c0.5-0.4,0.9-1,1.2-1.7s0.4-1.4,0.4-2.2s-0.1-1.5-0.4-2.2
	s-0.6-1.3-1.2-1.7s-1.2-0.6-2-0.6s-1.5,0.2-2,0.6s-0.9,1-1.2,1.7s-0.4,1.4-0.4,2.2s0.1,1.5,0.4,2.2s0.6,1.2,1.2,1.7
	C832.6,648.4,833.3,648.6,834.1,648.6z M834.1,650.3c-1.1,0-2-0.3-2.9-0.8c-0.8-0.5-1.4-1.2-1.9-2.2c-0.5-0.9-0.7-2-0.7-3.2
	s0.2-2.3,0.7-3.3c0.5-0.9,1.1-1.7,1.9-2.2c0.8-0.5,1.8-0.8,2.9-0.8s2,0.3,2.8,0.8s1.5,1.2,1.9,2.2c0.5,0.9,0.7,2,0.7,3.3
	c0,1.2-0.2,2.3-0.7,3.2s-1.1,1.6-1.9,2.2C836.1,650,835.2,650.3,834.1,650.3z M820.1,648.6c0.7,0,1.4-0.2,1.9-0.6
	c0.5-0.4,0.9-0.9,1.2-1.6c0.3-0.7,0.4-1.5,0.4-2.4s-0.1-1.7-0.4-2.4c-0.3-0.7-0.6-1.2-1.2-1.6c-0.5-0.4-1.1-0.6-1.9-0.6
	c-0.8,0-1.4,0.2-2,0.6c-0.5,0.4-0.9,0.9-1.2,1.6c-0.3,0.7-0.4,1.4-0.4,2.3c0,0.9,0.1,1.6,0.4,2.3c0.3,0.7,0.7,1.2,1.2,1.7
	C818.7,648.4,819.4,648.6,820.1,648.6z M819.9,650.3c-1,0-1.9-0.3-2.6-0.8c-0.8-0.5-1.4-1.2-1.8-2.2c-0.4-0.9-0.6-2-0.6-3.3
	s0.2-2.4,0.6-3.3s1-1.6,1.8-2.1s1.7-0.8,2.7-0.8c0.8,0,1.4,0.1,1.9,0.4c0.5,0.3,0.8,0.5,1,0.9c0.2,0.3,0.4,0.6,0.6,0.8h0.2V634h1.8
	v16h-1.8v-1.8h-0.2c-0.1,0.2-0.3,0.5-0.6,0.8c-0.2,0.3-0.6,0.6-1.1,0.9C821.3,650.1,820.6,650.3,819.9,650.3z M806.5,648.6
	c0.7,0,1.3-0.1,1.8-0.4c0.5-0.3,0.9-0.7,1.1-1.1c0.3-0.5,0.4-0.9,0.4-1.4V644c-0.1,0.1-0.2,0.2-0.5,0.3s-0.6,0.1-0.9,0.2
	c-0.3,0.1-0.7,0.1-1,0.1s-0.6,0.1-0.8,0.1c-0.5,0.1-0.9,0.2-1.3,0.3c-0.4,0.1-0.7,0.3-1,0.6c-0.2,0.3-0.4,0.6-0.4,1.1
	c0,0.6,0.2,1.1,0.7,1.5C805.2,648.5,805.8,648.6,806.5,648.6z M806.3,650.3c-0.8,0-1.5-0.1-2.1-0.4c-0.6-0.3-1.1-0.7-1.5-1.3
	s-0.5-1.2-0.5-2c0-0.7,0.1-1.2,0.4-1.7c0.3-0.4,0.6-0.8,1.1-1s1-0.4,1.5-0.5c0.6-0.1,1.1-0.2,1.7-0.3c0.7-0.1,1.3-0.2,1.8-0.2
	c0.5-0.1,0.8-0.1,1-0.3c0.2-0.1,0.3-0.3,0.3-0.6v-0.1c0-0.8-0.2-1.4-0.6-1.8c-0.4-0.4-1-0.6-1.9-0.6s-1.6,0.2-2.1,0.6
	s-0.9,0.8-1.1,1.2l-1.8-0.6c0.3-0.7,0.7-1.3,1.2-1.7s1.1-0.7,1.7-0.9c0.6-0.2,1.2-0.2,1.8-0.2c0.4,0,0.8,0,1.3,0.1s1,0.3,1.5,0.6
	s0.9,0.7,1.2,1.3s0.5,1.3,0.5,2.3v7.9h-1.8v-1.6h-0.1c-0.1,0.3-0.3,0.5-0.6,0.8s-0.7,0.5-1.2,0.8S807,650.3,806.3,650.3z
	 M795.3,635.1h1.8v11.4c0,0.5,0.1,0.9,0.2,1.2c0.2,0.3,0.4,0.4,0.6,0.5c0.2,0.1,0.5,0.1,0.8,0.1c0.2,0,0.4,0,0.5,0s0.2,0,0.3-0.1
	l0.4,1.7c-0.1,0-0.3,0.1-0.5,0.1c-0.2,0.1-0.5,0.1-0.9,0.1c-0.5,0-1-0.1-1.5-0.3s-0.9-0.6-1.2-1c-0.3-0.5-0.5-1-0.5-1.7L795.3,635.1
	L795.3,635.1z M799.7,638v1.6h-6.2V638H799.7z M786.5,650.3c-1.2,0-2.2-0.3-3-0.8s-1.5-1.2-1.9-2.2c-0.4-0.9-0.7-2-0.7-3.2
	s0.2-2.3,0.7-3.2s1.1-1.7,1.9-2.2c0.8-0.5,1.8-0.8,2.8-0.8c0.6,0,1.2,0.1,1.9,0.3s1.2,0.5,1.7,1s0.9,1.1,1.2,1.8s0.4,1.7,0.4,2.8
	v0.8h-9.2V643h7.4c0-0.7-0.1-1.3-0.4-1.8c-0.3-0.5-0.6-1-1.1-1.3s-1.1-0.5-1.7-0.5c-0.7,0-1.4,0.2-1.9,0.5c-0.5,0.4-0.9,0.8-1.2,1.4
	s-0.4,1.2-0.4,1.9v1.1c0,0.9,0.2,1.7,0.5,2.3s0.8,1.1,1.3,1.4c0.6,0.3,1.2,0.5,2,0.5c0.5,0,0.9-0.1,1.3-0.2c0.4-0.1,0.7-0.3,1-0.6
	s0.5-0.6,0.7-1l1.8,0.5c-0.2,0.6-0.5,1.1-0.9,1.6s-1,0.8-1.6,1.1C788.1,650.1,787.3,650.3,786.5,650.3z M777.9,634v16H776v-16H777.9
	z M764.2,644c0,0.9,0.1,1.7,0.4,2.4c0.3,0.7,0.7,1.2,1.2,1.6c0.5,0.4,1.1,0.6,1.9,0.6c0.8,0,1.4-0.2,1.9-0.6c0.5-0.4,0.9-1,1.2-1.7
	s0.4-1.5,0.4-2.3s-0.1-1.6-0.4-2.3c-0.3-0.7-0.6-1.2-1.2-1.6c-0.5-0.4-1.2-0.6-1.9-0.6c-0.8,0-1.4,0.2-1.9,0.6
	c-0.5,0.4-0.9,0.9-1.2,1.6C764.4,642.3,764.2,643.1,764.2,644z M762.4,654.5V638h1.8v1.9h0.2c0.1-0.2,0.3-0.5,0.6-0.8
	c0.2-0.3,0.6-0.6,1-0.9c0.5-0.3,1.1-0.4,1.9-0.4c1,0,1.9,0.3,2.7,0.8s1.4,1.2,1.8,2.1s0.6,2,0.6,3.3s-0.2,2.4-0.6,3.3
	c-0.4,0.9-1,1.6-1.8,2.2c-0.8,0.5-1.6,0.8-2.6,0.8c-0.8,0-1.4-0.1-1.9-0.4c-0.5-0.3-0.8-0.6-1.1-0.9c-0.2-0.3-0.4-0.6-0.6-0.8h-0.2
	v6.3L762.4,654.5L762.4,654.5z M743.1,650v-12h1.8v1.9h0.2c0.2-0.6,0.7-1.1,1.2-1.5c0.6-0.4,1.2-0.5,2-0.5s1.5,0.2,2,0.5
	c0.5,0.4,0.9,0.9,1.2,1.5h0.1c0.3-0.6,0.8-1.1,1.4-1.5c0.6-0.4,1.4-0.6,2.2-0.6c1.1,0,2,0.3,2.6,1c0.7,0.7,1,1.7,1,3.1v8H757v-8
	c0-0.9-0.2-1.5-0.7-1.9s-1.1-0.6-1.7-0.6c-0.8,0-1.5,0.3-2,0.8s-0.7,1.1-0.7,1.9v7.8H750v-8.2c0-0.7-0.2-1.2-0.7-1.6
	c-0.4-0.4-1-0.6-1.7-0.6c-0.5,0-0.9,0.1-1.3,0.4c-0.4,0.3-0.7,0.6-1,1.1c-0.2,0.4-0.4,1-0.4,1.6v7.5h-1.8V650z M734.6,648.6
	c0.8,0,1.5-0.2,2-0.6c0.5-0.4,0.9-1,1.2-1.7s0.4-1.4,0.4-2.2s-0.1-1.5-0.4-2.2s-0.6-1.3-1.2-1.7s-1.2-0.6-2-0.6s-1.5,0.2-2,0.6
	s-0.9,1-1.2,1.7s-0.4,1.4-0.4,2.2s0.1,1.5,0.4,2.2s0.6,1.2,1.2,1.7C733.1,648.4,733.8,648.6,734.6,648.6z M734.6,650.3
	c-1.1,0-2-0.3-2.9-0.8c-0.8-0.5-1.4-1.2-1.9-2.2c-0.5-0.9-0.7-2-0.7-3.2s0.2-2.3,0.7-3.3c0.5-0.9,1.1-1.7,1.9-2.2
	c0.8-0.5,1.8-0.8,2.9-0.8s2,0.3,2.8,0.8s1.5,1.2,1.9,2.2c0.5,0.9,0.7,2,0.7,3.3c0,1.2-0.2,2.3-0.7,3.2s-1.1,1.6-1.9,2.2
	C736.6,650,735.7,650.3,734.6,650.3z M722.1,650.3c-1.1,0-2.1-0.3-2.9-0.8s-1.4-1.3-1.9-2.2s-0.7-2-0.7-3.2s0.2-2.3,0.7-3.2
	s1.1-1.7,1.9-2.2c0.8-0.5,1.8-0.8,2.8-0.8c0.8,0,1.6,0.2,2.3,0.5s1.2,0.8,1.7,1.3s0.7,1.2,0.8,2H725c-0.1-0.5-0.5-1-0.9-1.5
	c-0.5-0.4-1.1-0.6-1.9-0.6c-0.7,0-1.3,0.2-1.9,0.6c-0.5,0.4-1,0.9-1.3,1.6c-0.3,0.7-0.4,1.5-0.4,2.4s0.1,1.7,0.4,2.4
	c0.3,0.7,0.7,1.2,1.2,1.6c0.5,0.4,1.2,0.6,1.9,0.6c0.5,0,0.9-0.1,1.3-0.2s0.7-0.4,1-0.7s0.5-0.7,0.6-1.1h1.8
	c-0.1,0.7-0.4,1.3-0.8,1.9c-0.4,0.6-0.9,1-1.6,1.3C723.8,650.1,723,650.3,722.1,650.3z M702,648.6c0.7,0,1.3-0.1,1.8-0.4
	c0.5-0.3,0.9-0.7,1.1-1.1c0.3-0.5,0.4-0.9,0.4-1.4V644c-0.1,0.1-0.2,0.2-0.5,0.3s-0.6,0.1-0.9,0.2c-0.3,0.1-0.7,0.1-1,0.1
	s-0.6,0.1-0.8,0.1c-0.5,0.1-0.9,0.2-1.3,0.3c-0.4,0.1-0.7,0.3-1,0.6c-0.2,0.3-0.4,0.6-0.4,1.1c0,0.6,0.2,1.1,0.7,1.5
	C700.7,648.5,701.3,648.6,702,648.6z M701.7,650.3c-0.8,0-1.5-0.1-2.1-0.4c-0.6-0.3-1.1-0.7-1.5-1.3s-0.5-1.2-0.5-2
	c0-0.7,0.1-1.2,0.4-1.7c0.3-0.4,0.6-0.8,1.1-1s1-0.4,1.5-0.5c0.6-0.1,1.1-0.2,1.7-0.3c0.7-0.1,1.3-0.2,1.8-0.2
	c0.5-0.1,0.8-0.1,1-0.3c0.2-0.1,0.3-0.3,0.3-0.6v-0.1c0-0.8-0.2-1.4-0.6-1.8c-0.4-0.4-1-0.6-1.9-0.6s-1.6,0.2-2.1,0.6
	s-0.9,0.8-1.1,1.2l-1.8-0.6c0.3-0.7,0.7-1.3,1.2-1.7s1.1-0.7,1.7-0.9c0.6-0.2,1.2-0.2,1.8-0.2c0.4,0,0.8,0,1.3,0.1s1,0.3,1.5,0.6
	s0.9,0.7,1.2,1.3s0.5,1.3,0.5,2.3v7.9h-1.8v-1.6h-0.1c-0.1,0.3-0.3,0.5-0.6,0.8s-0.7,0.5-1.2,0.8S702.4,650.3,701.7,650.3z
	 M681.9,650v-16h1.9v7.1h8.5V634h1.9v16h-1.9v-7.2h-8.5v7.2H681.9z"/>
<g>
	<g>
		<path class="st11" d="M296.4,850.7c1.5,0.7,1.8,1.8,0.6,2.1c-0.8,0.2-2.1-0.2-2.4-0.7s0-1.1,0.6-1.4
			C295.7,850.3,295.6,850.3,296.4,850.7L296.4,850.7z M284.5,843.3c0.2,0.8-0.8,5.1-2,8.1c-0.2,0.6-0.4,1.2-0.4,1.2s0.8-0.5,1.7-1.1
			c0.9-0.7,1.8-1.3,2.1-1.4c1.2-0.5,2.8,0.7,2.7,2.2c-0.1,2.5-5.8,9.1-7.4,8.5c-0.5-0.2-0.3-1.4,0.6-3.1c0.9-1.8,0.9-2.4,0.1-2.7
			c-1.1-0.5-1.6-1.9-1.5-4.9c0-3,0.4-4.1,2.1-6.1C283.5,842.7,284.3,842.5,284.5,843.3z M350.6,835c1.8,0.9,2.6,6.9,1.4,10.6
			c-0.6,1.8-1.5,3.2-2.3,3.6c-1.3,0.6-1.6-0.6-1.8-6.4c-0.1-5.3,0.1-6.9,1-7.6C349.5,834.8,349.9,834.7,350.6,835z M374.7,834.3
			c-1.8,2.1-3.9,11.5-3,13.8c0.5,1.4,1.9,1.6,2.8,0.3c0.3-0.4,0.6-1.3,0.7-2.1c0.3-1.7,0.8-2.6,1.6-2.7c0.8-0.1,1.4,0.7,2.2,3
			c0.9,2.4,1.5,3.5,2.6,4.6c1.5,1.4,3.2,1.6,4.5,0.5c1-0.8,2-2.9,2-4.2c0-1.1,0-1.2-0.6-1.2c-0.4,0-1,0.2-2,0.8
			c-1.7,1.1-2.4,1.1-3.1,0c-0.7-1-1.3-2.6-1.3-3.3c0-1.6-2.9-7.6-4.5-9.3C375.6,833.6,375.3,833.6,374.7,834.3z M367.5,825.5
			c-1,1-1.6,2.3-2.7,6c-1,3.4-1.6,4.3-2.2,3.3c-0.3-0.6-1.5-1-2.2-0.7c-1.9,0.8-1.8,5.6,0.2,6.6c1.3,0.6,2.7,4.5,2.7,7.5
			c0,1.5-0.4,2.5-1,3c-0.3,0.3-0.5,0.2-0.9-0.2c-0.7-0.6-1.1-1.8-1.3-4.4c-0.2-2.6-0.9-4.1-2.6-5.9c-1.5-1.6-1.9-2.5-2.2-4.4
			c-0.3-2-0.6-2.6-1.5-3.1s-3.5-1-5.1-1c-2.1,0-3,1.1-4.6,5.3c-1.3,3.5-1.1,5.3,0.9,10.7c1.3,3.5,2.9,5.4,4.3,5.4s2.5-1.6,3.6-5.2
			c0.8-2.4,1.2-3.4,1.8-3.6c0.9-0.3,1.7,1.2,2.5,4.8c1,4.6,1.5,5.9,2.7,6.3c0.8,0.3,1.6,0.2,3-0.6c2.7-1.4,2.9-2.3,3.5-11.5
			c0.6-9.1,1-11.4,3-14.8c1.6-2.8,1.4-4.5-0.6-4.5C368.5,824.7,368,825,367.5,825.5z M283.5,769.1c0.4,1.1,0.4,8.7-0.1,13.2
			c-2,17.7-5.5,36.8-8.2,44c-0.9,2.3-1.2,2.8-2,2.8l-0.6-0.1v-2.4c0-2.5,1.4-14.5,3.1-26.6c2.1-14.9,4.4-27.4,5.7-30.1
			C282,768.1,283,767.8,283.5,769.1z M437.2,767.6c-0.6,0.4-0.9,1.3-3,9.1c-3.1,11.3-5.5,17.2-12.5,30.9
			c-4.1,7.9-18.6,34.3-18.8,34.1c-0.1-0.1-0.3-2.2-0.4-4.5c-0.5-6.9-0.9-11.7-1.5-16.3c-1.5-10.9-4.1-22.5-5.8-25.5
			c-0.6-1.2-2.2-2.3-3-2.3c-1.9,0-2.3,3-0.7,5.1c0.9,1.2,1.5,2.8,2.5,6.1c2.4,8.5,4.1,19.8,3.3,22.1c-0.4,1-1.4,1.4-4.2,1.9
			c-3.9,0.7-6.5,1.6-8.1,3c-1,0.8-1.2,1.7-0.5,1.9c0.8,0.3,4.1-0.4,8.6-1.7c3.2-1,4.7-1.3,4.9-1.2c0.4,0.4,0.6,3.3,0.6,9.1
			c0,6.1-0.2,8.7-0.9,11.5c-0.5,1.7-0.7,2.3-2.5,6.3c-1.1,2.4-1.4,3.9-0.9,3.9s2.6-1.6,3.5-2.7c1.2-1.4,2.3-3.6,3-5.9
			c0.8-2.5,1.3-3.3,2.7-4.8c0.6-0.6,1.2-1.4,1.3-1.7c0.2-0.8,3.6-6.9,8.4-15c11.2-18.9,18.3-33.5,22.3-46c2.6-7.9,4.1-15.9,3.5-17.5
			C438.7,767.2,437.8,767.1,437.2,767.6z M358.3,766.5c-7,1.6-21.2,9.1-31.2,16.4c-6.8,5-10.5,8.9-10.5,11.3c0,2.4,1.9,2.1,3.9-0.6
			c1.8-2.4,8.7-8.3,14.5-12.3c2.6-1.8,4-2.5,4.3-2.3c0.2,0.2,0.1,11.7-0.2,19.4c-0.5,12.3-1,20.5-2.1,33.5
			c-1.2,13.8-1.2,15.2-1.3,20.1c0,5,0.1,6,1.1,6.2c1.5,0.4,2-1.9,2.6-11.8c0.6-8.7,1.7-21.3,2.1-22.4c0.2-0.6,0.8-9.3,1-13.8
			c0.1-2.4,0.2-11,0.2-19v-14.6l3.9-1.9c6.9-3.3,11.9-5,15.3-5.4c2.4-0.3,2.9-0.5,2.8-1.2c-0.1-0.9-1.9-1.6-4.1-1.7
			C359.6,766.4,358.6,766.5,358.3,766.5z M267.8,766c1,2.9,0.7,21-0.7,34.3c-0.9,8.9-2.7,17.9-4.2,21.2c-0.6,1.3-1.5,2.2-2,2.2
			c-0.5-0.1-0.5-0.2-0.5-2.5c0-1.3,0.3-4,0.5-5.9c0.6-4.4,1.7-14.8,2.3-22.2c1.3-14.9,2.2-23.6,2.8-25.8
			C266.5,765.6,267.5,764.9,267.8,766L267.8,766z M264.9,758.6c-0.5,0.5-0.8,1.4-1.3,4.2c-2,10.4-4.7,35.2-6.3,58.9
			c-0.9,13.1-1.1,13.8-5.5,21.7c-4.4,7.8-8.3,13.5-9.6,14.1c-0.4,0.2-0.6,0.5-0.7,1.1c-0.4,1.9-0.7,2.4-1.7,4
			c-0.6,0.9-1.9,2.5-2.8,3.6c-2.2,2.5-3.9,4.7-3.9,5.2c0,0.7,1.4,0.8,2.7,0.2c1.9-0.9,3-2.1,6-6.2c2.1-2.9,3.7-4.4,6.7-6.2
			c1.5-0.9,2.7-1.7,2.7-1.8s-0.4-0.5-0.8-0.9c-0.9-0.8-1-1.2-0.4-2.8c0.7-2,4.4-9.2,5.1-9.9c0.5-0.4,0.7,0,0.9,1.6
			c0.1,0.7,0.6,4.8,1.2,9.2c2.4,18.1,3.5,23.3,5,23.1c1.1-0.1,1.2-0.8,1.3-9.1c0.1-7.6,0.2-7.8,0.7-9.8c1.1-3.5,3.8-8.9,5.3-10.6
			c0.6-0.6,0.7-0.7,1-0.4c0.6,0.5,2.4,3.8,4.3,8.3c1,2.3,2.3,5,2.9,6c1.2,2.2,1.3,3,0.4,5.3c-1,2.6-1.6,4.7-1.4,5.5
			c0.2,0.9,1.1,1.6,1.7,1.2c0.6-0.3,1.3-1.7,2-3.5c1.4-3.8,5.9-11,8.6-13.6c1.5-1.5,2.3-1.8,5-1.4c2.6,0.3,4.5,0.3,5.3-0.1
			c1.6-0.7,2.4-3.9,1.4-5.6c-0.5-0.9-2.1-1.7-3.4-1.7c-0.5,0-1.8,0.2-2.9,0.5c-4.5,1.2-5.7,0.5-6.1-3.7c-0.3-2.6-0.7-3.9-1.7-4.5
			c-1.5-0.9-3.7-0.1-5.5,1.9c-0.5,0.6-1.6,2.2-2.3,3.6c-1.4,2.7-1.9,3.2-2.8,2.9c-1.8-0.6-2.6-3.2-2.4-7.4c0.2-3.4,0.5-4.9,2.3-9.5
			c5.1-13.5,8.3-27.3,10.1-44c1-9.5,1.2-20.3,0.4-22.9c-1.1-3.6-3.8-2.5-6.5,2.5c-2.9,5.4-4.2,10.8-6.5,26.8
			c-2.2,15-3.3,26.2-3.6,36.3c-0.1,4-0.4,7.5-0.6,8.6c-0.7,3.7-2.5,8.6-5.2,13.7c-1.6,3.1-2.3,4.1-2.7,3.8c-0.7-0.4-1.3-6.8-1.3-14
			c0-7.5,0.1-8.1,3.7-17.8c3.9-10.5,5.6-17.9,6.9-30.5c1.8-17.5,1.6-24.8-1.2-32.4C268.4,759.1,266,757.4,264.9,758.6z"/>
	</g>
</g>
<rect x="149.5" y="854.5" class="st10" width="373" height="1"/>
<path class="st10" d="M453.7,920.5c0,1.6-0.2,3.1-0.6,4.4c-0.4,1.4-1,2.6-1.8,3.7H450c0.3-0.4,0.6-0.9,0.9-1.6
	c0.3-0.6,0.5-1.3,0.7-2s0.4-1.5,0.5-2.3s0.2-1.6,0.2-2.3c0-1-0.1-2-0.3-3.1s-0.5-2-0.8-2.9s-0.7-1.6-1.1-2.2h1.3
	c0.8,1.1,1.4,2.4,1.8,3.7C453.5,917.4,453.7,918.8,453.7,920.5z M440.6,919.7h2.9c0.5,0,0.9-0.1,1.3-0.3s0.7-0.5,0.9-0.8
	c0.2-0.3,0.3-0.7,0.3-1.2c0-0.6-0.2-1.1-0.6-1.5s-1-0.6-1.9-0.6h-3v4.4H440.6z M440.6,925.6h3.1c1,0,1.8-0.2,2.2-0.6
	c0.4-0.4,0.7-0.9,0.7-1.5c0-0.4-0.1-0.9-0.3-1.2c-0.2-0.4-0.5-0.7-1-0.9c-0.4-0.2-0.9-0.3-1.5-0.3h-3.2L440.6,925.6L440.6,925.6z
	 M439,927v-13.1h4.6c0.9,0,1.7,0.2,2.3,0.5c0.6,0.3,1,0.7,1.3,1.3c0.3,0.5,0.4,1.1,0.4,1.7c0,0.6-0.1,1-0.3,1.4
	c-0.2,0.4-0.5,0.7-0.8,0.9s-0.7,0.4-1,0.5v0.1c0.4,0,0.8,0.2,1.2,0.4c0.4,0.3,0.7,0.6,1,1.1s0.4,1.1,0.4,1.8s-0.1,1.2-0.4,1.8
	c-0.3,0.5-0.8,0.9-1.4,1.2s-1.5,0.5-2.5,0.5H439V927z M434.8,920.5c0-1.1-0.2-2.1-0.6-2.9c-0.4-0.8-0.9-1.4-1.5-1.8
	c-0.6-0.4-1.4-0.6-2.1-0.6c-0.8,0-1.5,0.2-2.2,0.6c-0.6,0.4-1.1,1-1.5,1.8s-0.6,1.7-0.6,2.9c0,1.1,0.2,2.1,0.6,2.9
	c0.4,0.8,0.9,1.4,1.5,1.8c0.6,0.4,1.4,0.6,2.2,0.6c0.8,0,1.5-0.2,2.1-0.6c0.6-0.4,1.2-1,1.5-1.8
	C434.6,922.5,434.8,921.6,434.8,920.5z M436.3,920.5c0,1.4-0.2,2.6-0.7,3.6s-1.2,1.8-2.1,2.3s-1.9,0.8-3,0.8s-2.1-0.3-3-0.8
	s-1.6-1.3-2.1-2.3s-0.7-2.2-0.7-3.6c0-1.4,0.2-2.6,0.7-3.6s1.2-1.8,2.1-2.3s1.9-0.8,3-0.8s2.1,0.3,3,0.8s1.6,1.3,2.1,2.3
	S436.3,919.1,436.3,920.5z M413.7,927.2c-0.9,0-1.8-0.2-2.4-0.6c-0.7-0.4-1.2-1-1.6-1.8s-0.5-1.6-0.5-2.6s0.2-1.9,0.5-2.7
	c0.4-0.8,0.9-1.4,1.5-1.8c0.7-0.4,1.4-0.7,2.3-0.7c0.5,0,1,0.1,1.5,0.3s1,0.4,1.4,0.8c0.4,0.4,0.7,0.9,1,1.5s0.4,1.4,0.4,2.3v0.6
	h-7.6v-1.3h6c0-0.6-0.1-1-0.3-1.5c-0.2-0.4-0.5-0.8-0.9-1c-0.4-0.3-0.9-0.4-1.4-0.4c-0.6,0-1.1,0.1-1.6,0.4c-0.4,0.3-0.8,0.7-1,1.2
	s-0.4,1-0.4,1.5v0.9c0,0.7,0.1,1.4,0.4,1.9s0.6,0.9,1.1,1.2s1,0.4,1.6,0.4c0.4,0,0.8-0.1,1.1-0.2c0.3-0.1,0.6-0.3,0.8-0.5
	c0.2-0.2,0.4-0.5,0.5-0.9l1.5,0.4c-0.2,0.5-0.4,0.9-0.8,1.3c-0.4,0.4-0.8,0.7-1.3,0.9C414.9,927.1,414.3,927.2,413.7,927.2z
	 M402.3,925.9c0.6,0,1.1-0.2,1.5-0.5s0.7-0.8,1-1.3c0.2-0.6,0.3-1.2,0.3-2c0-0.7-0.1-1.4-0.3-1.9c-0.2-0.6-0.5-1-0.9-1.3
	s-0.9-0.5-1.5-0.5s-1.2,0.2-1.6,0.5s-0.7,0.8-1,1.3c-0.2,0.6-0.3,1.2-0.3,1.9s0.1,1.3,0.3,1.9c0.2,0.6,0.5,1,1,1.4
	C401.1,925.7,401.6,925.9,402.3,925.9z M402.1,927.2c-0.8,0-1.5-0.2-2.2-0.6c-0.6-0.4-1.1-1-1.5-1.8s-0.5-1.7-0.5-2.7
	s0.2-1.9,0.5-2.7s0.8-1.3,1.5-1.8s1.4-0.6,2.2-0.6c0.6,0,1.1,0.1,1.5,0.3s0.7,0.4,0.9,0.7c0.2,0.3,0.4,0.5,0.5,0.7h0.1v-4.8h1.5V927
	h-1.5v-1.5h-0.2c-0.1,0.2-0.3,0.4-0.5,0.7s-0.5,0.5-0.9,0.7C403.2,927.1,402.7,927.2,402.1,927.2z M386.6,927v-9.8h1.5v1.5h0.1
	c0.2-0.5,0.5-0.9,1-1.2s1-0.5,1.6-0.5c0.1,0,0.2,0,0.4,0c0.2,0,0.3,0,0.4,0v1.5c-0.1,0-0.2,0-0.4-0.1c-0.2,0-0.4,0-0.6,0
	c-0.5,0-0.9,0.1-1.3,0.3s-0.7,0.5-0.9,0.8c-0.2,0.3-0.3,0.7-0.3,1.2v6.2L386.6,927L386.6,927z M379.8,925.9c0.7,0,1.2-0.2,1.7-0.5
	s0.8-0.8,1-1.4c0.2-0.6,0.3-1.2,0.3-1.8s-0.1-1.3-0.3-1.8c-0.2-0.6-0.5-1-1-1.4s-1-0.5-1.7-0.5s-1.2,0.2-1.7,0.5
	c-0.4,0.3-0.8,0.8-1,1.4c-0.2,0.6-0.3,1.2-0.3,1.8s0.1,1.3,0.3,1.8c0.2,0.6,0.5,1,1,1.4C378.6,925.7,379.2,925.9,379.8,925.9z
	 M379.8,927.2c-0.9,0-1.7-0.2-2.3-0.6c-0.7-0.4-1.2-1-1.6-1.8s-0.6-1.6-0.6-2.7c0-1,0.2-1.9,0.6-2.7s0.9-1.4,1.6-1.8
	c0.7-0.4,1.4-0.6,2.3-0.6s1.7,0.2,2.3,0.6c0.7,0.4,1.2,1,1.6,1.8s0.6,1.7,0.6,2.7s-0.2,1.9-0.6,2.7s-0.9,1.3-1.6,1.8
	C381.5,927,380.7,927.2,379.8,927.2z M368.6,925.9c0.6,0,1.1-0.2,1.5-0.5s0.7-0.8,1-1.3c0.2-0.6,0.3-1.2,0.3-2
	c0-0.7-0.1-1.4-0.3-1.9c-0.2-0.6-0.5-1-0.9-1.3s-0.9-0.5-1.5-0.5s-1.2,0.2-1.6,0.5s-0.7,0.8-1,1.3c-0.2,0.6-0.3,1.2-0.3,1.9
	s0.1,1.3,0.3,1.9c0.2,0.6,0.5,1,1,1.4C367.4,925.7,368,925.9,368.6,925.9z M368.4,927.2c-0.8,0-1.5-0.2-2.2-0.6
	c-0.6-0.4-1.1-1-1.5-1.8s-0.5-1.7-0.5-2.7s0.2-1.9,0.5-2.7s0.8-1.3,1.5-1.8s1.4-0.6,2.2-0.6c0.6,0,1.1,0.1,1.5,0.3s0.7,0.4,0.9,0.7
	c0.2,0.3,0.4,0.5,0.5,0.7h0.1v-4.8h1.5V927h-1.5v-1.5h-0.2c-0.1,0.2-0.3,0.4-0.5,0.7s-0.5,0.5-0.9,0.7
	C369.5,927.1,369,927.2,368.4,927.2z M357.7,925.9c0.6,0,1.1-0.1,1.5-0.4c0.4-0.2,0.7-0.5,0.9-0.9c0.2-0.4,0.3-0.8,0.3-1.2V922
	c-0.1,0.1-0.2,0.1-0.4,0.2c-0.2,0.1-0.5,0.1-0.7,0.2c-0.3,0-0.5,0.1-0.8,0.1s-0.5,0.1-0.6,0.1c-0.4,0.1-0.8,0.1-1.1,0.2
	c-0.3,0.1-0.6,0.3-0.8,0.5c-0.2,0.2-0.3,0.5-0.3,0.9c0,0.5,0.2,0.9,0.6,1.2C356.6,925.7,357.1,925.9,357.7,925.9z M357.4,927.2
	c-0.6,0-1.2-0.1-1.7-0.4c-0.5-0.2-0.9-0.6-1.2-1c-0.3-0.5-0.4-1-0.4-1.6s0.1-1,0.3-1.4c0.2-0.4,0.5-0.6,0.9-0.8s0.8-0.3,1.2-0.4
	c0.5-0.1,0.9-0.2,1.4-0.2c0.6-0.1,1.1-0.1,1.5-0.2c0.4,0,0.6-0.1,0.8-0.2c0.2-0.1,0.3-0.3,0.3-0.5v-0.1c0-0.6-0.2-1.1-0.5-1.5
	c-0.3-0.3-0.9-0.5-1.6-0.5s-1.3,0.2-1.7,0.5c-0.4,0.3-0.7,0.7-0.9,1l-1.4-0.5c0.3-0.6,0.6-1.1,1-1.4c0.4-0.3,0.9-0.6,1.4-0.7
	c0.5-0.1,1-0.2,1.5-0.2c0.3,0,0.7,0,1.1,0.1s0.8,0.2,1.2,0.5c0.4,0.2,0.7,0.6,1,1c0.3,0.5,0.4,1.1,0.4,1.9v6.5h-1.5v-1.3h-0.1
	c-0.1,0.2-0.3,0.4-0.5,0.7c-0.2,0.2-0.6,0.4-1,0.6C358.5,927.1,358,927.2,357.4,927.2z M347.3,925.9c0.6,0,1.1-0.2,1.5-0.5
	s0.7-0.8,1-1.3c0.2-0.6,0.3-1.2,0.3-2c0-0.7-0.1-1.4-0.3-1.9c-0.2-0.6-0.5-1-0.9-1.3s-0.9-0.5-1.5-0.5s-1.2,0.2-1.6,0.5
	s-0.7,0.8-1,1.3c-0.2,0.6-0.3,1.2-0.3,1.9s0.1,1.3,0.3,1.9c0.2,0.6,0.5,1,1,1.4C346.1,925.7,346.6,925.9,347.3,925.9z M347.1,927.2
	c-0.8,0-1.5-0.2-2.2-0.6c-0.6-0.4-1.1-1-1.5-1.8s-0.5-1.7-0.5-2.7s0.2-1.9,0.5-2.7s0.8-1.3,1.5-1.8s1.4-0.6,2.2-0.6
	c0.6,0,1.1,0.1,1.5,0.3s0.7,0.4,0.9,0.7c0.2,0.3,0.4,0.5,0.5,0.7h0.1v-4.8h1.5V927h-1.5v-1.5h-0.2c-0.1,0.2-0.3,0.4-0.5,0.7
	s-0.5,0.5-0.9,0.7C348.2,927.1,347.7,927.2,347.1,927.2z M334.3,921.1v5.9h-1.5v-9.8h1.5v1.5h0.1c0.2-0.5,0.6-0.9,1-1.2
	c0.5-0.3,1.1-0.5,1.8-0.5c0.7,0,1.2,0.1,1.7,0.4c0.5,0.3,0.9,0.7,1.2,1.2c0.3,0.5,0.4,1.2,0.4,2.1v6.2H339v-6.1
	c0-0.8-0.2-1.4-0.6-1.8c-0.4-0.4-1-0.7-1.6-0.7c-0.5,0-0.9,0.1-1.3,0.3s-0.7,0.5-0.9,0.9C334.4,920,334.3,920.5,334.3,921.1z
	 M328.6,923v-5.8h1.5v9.8h-1.5v-1.7h-0.1c-0.2,0.5-0.6,0.9-1.1,1.3c-0.5,0.3-1.1,0.5-1.8,0.5c-0.6,0-1.2-0.1-1.6-0.4
	c-0.5-0.3-0.9-0.7-1.1-1.2c-0.3-0.5-0.4-1.2-0.4-2.1v-6.2h1.5v6.1c0,0.7,0.2,1.3,0.6,1.7s0.9,0.6,1.5,0.6c0.4,0,0.8-0.1,1.1-0.3
	c0.4-0.2,0.7-0.5,1-0.9C328.4,924.1,328.6,923.6,328.6,923z M312.6,927v-13.1h7.8v1.4h-6.3v4.4h5.7v1.4h-5.7v5.9L312.6,927
	L312.6,927z M298.3,930.7c-0.3,0-0.5,0-0.7-0.1c-0.2,0-0.3-0.1-0.4-0.1l0.4-1.3c0.4,0.1,0.7,0.1,1,0.1s0.5-0.2,0.7-0.4
	s0.4-0.6,0.6-1.1l0.3-0.8l-3.6-9.9h1.6l2.7,7.8h0.1l2.7-7.8h1.6l-4.2,11.2c-0.2,0.5-0.4,0.9-0.7,1.3c-0.3,0.3-0.6,0.6-1,0.7
	C299.2,930.6,298.8,930.7,298.3,930.7z M285.6,927v-9.8h1.5v1.5h0.1c0.2-0.5,0.5-0.9,1-1.2s1-0.5,1.6-0.5c0.1,0,0.2,0,0.4,0
	c0.2,0,0.3,0,0.4,0v1.5c-0.1,0-0.2,0-0.4-0.1c-0.2,0-0.4,0-0.6,0c-0.5,0-0.9,0.1-1.3,0.3s-0.7,0.5-0.9,0.8c-0.2,0.3-0.3,0.7-0.3,1.2
	v6.2L285.6,927L285.6,927z M278.8,925.9c0.7,0,1.2-0.2,1.7-0.5s0.8-0.8,1-1.4c0.2-0.6,0.3-1.2,0.3-1.8s-0.1-1.3-0.3-1.8
	c-0.2-0.6-0.5-1-1-1.4s-1-0.5-1.7-0.5s-1.2,0.2-1.7,0.5s-0.8,0.8-1,1.4c-0.2,0.6-0.3,1.2-0.3,1.8s0.1,1.3,0.3,1.8
	c0.2,0.6,0.5,1,1,1.4S278.2,925.9,278.8,925.9z M278.8,927.2c-0.9,0-1.7-0.2-2.3-0.6c-0.7-0.4-1.2-1-1.6-1.8s-0.6-1.6-0.6-2.7
	c0-1,0.2-1.9,0.6-2.7s0.9-1.4,1.6-1.8c0.7-0.4,1.4-0.6,2.3-0.6s1.7,0.2,2.3,0.6c0.7,0.4,1.2,1,1.6,1.8s0.6,1.7,0.6,2.7
	s-0.2,1.9-0.6,2.7s-0.9,1.3-1.6,1.8C280.5,927,279.7,927.2,278.8,927.2z M269.1,914.8h1.5v9.4c0,0.4,0.1,0.7,0.2,1
	c0.1,0.2,0.3,0.3,0.5,0.4c0.2,0.1,0.4,0.1,0.6,0.1s0.3,0,0.4,0s0.2,0,0.3-0.1l0.3,1.4c-0.1,0-0.2,0.1-0.4,0.1
	c-0.2,0-0.4,0.1-0.7,0.1c-0.4,0-0.8-0.1-1.3-0.3c-0.4-0.2-0.7-0.5-1-0.8c-0.3-0.4-0.4-0.8-0.4-1.4V914.8z M272.7,917.2v1.3h-5.1
	v-1.3H272.7z M262.3,927.2c-0.9,0-1.7-0.2-2.4-0.7c-0.7-0.4-1.2-1-1.5-1.8c-0.4-0.8-0.5-1.6-0.5-2.6s0.2-1.9,0.5-2.6
	c0.4-0.8,0.9-1.4,1.5-1.8c0.7-0.4,1.4-0.7,2.3-0.7c0.7,0,1.3,0.1,1.9,0.4c0.6,0.3,1,0.6,1.4,1.1s0.6,1,0.7,1.6h-1.5
	c-0.1-0.4-0.4-0.8-0.8-1.2c-0.4-0.3-0.9-0.5-1.6-0.5c-0.6,0-1.1,0.2-1.5,0.5s-0.8,0.7-1,1.3c-0.2,0.5-0.4,1.2-0.4,1.9
	c0,0.8,0.1,1.4,0.4,2c0.2,0.6,0.6,1,1,1.3s1,0.5,1.6,0.5c0.4,0,0.7-0.1,1.1-0.2c0.3-0.1,0.6-0.3,0.8-0.6s0.4-0.6,0.5-0.9h1.5
	c-0.1,0.6-0.3,1.1-0.6,1.6c-0.3,0.5-0.8,0.8-1.3,1.1C263.7,927.1,263.1,927.2,262.3,927.2z M252,927.2c-0.9,0-1.8-0.2-2.4-0.6
	c-0.7-0.4-1.2-1-1.6-1.8c-0.4-0.8-0.5-1.6-0.5-2.6s0.2-1.9,0.5-2.7c0.4-0.8,0.9-1.4,1.5-1.8c0.7-0.4,1.4-0.7,2.3-0.7
	c0.5,0,1,0.1,1.5,0.3s1,0.4,1.4,0.8c0.4,0.4,0.7,0.9,1,1.5c0.2,0.6,0.4,1.4,0.4,2.3v0.6h-7.6v-1.3h6c0-0.6-0.1-1-0.3-1.5
	c-0.2-0.4-0.5-0.8-0.9-1c-0.4-0.3-0.9-0.4-1.4-0.4c-0.6,0-1.1,0.1-1.6,0.4c-0.4,0.3-0.8,0.7-1,1.2s-0.4,1-0.4,1.5v0.9
	c0,0.7,0.1,1.4,0.4,1.9c0.3,0.5,0.6,0.9,1.1,1.2s1,0.4,1.6,0.4c0.4,0,0.8-0.1,1.1-0.2c0.3-0.1,0.6-0.3,0.8-0.5s0.4-0.5,0.5-0.9
	l1.5,0.4c-0.2,0.5-0.4,0.9-0.8,1.3c-0.4,0.4-0.8,0.7-1.3,0.9C253.3,927.1,252.7,927.2,252,927.2z M241.5,927v-9.8h1.5v1.5h0.1
	c0.2-0.5,0.5-0.9,1-1.2s1-0.5,1.6-0.5c0.1,0,0.2,0,0.4,0s0.3,0,0.4,0v1.5c-0.1,0-0.2,0-0.4-0.1c-0.2,0-0.4,0-0.6,0
	c-0.5,0-0.9,0.1-1.3,0.3c-0.4,0.2-0.7,0.5-0.9,0.8s-0.3,0.7-0.3,1.2v6.2L241.5,927L241.5,927z M238,915.5c-0.3,0-0.5-0.1-0.8-0.3
	c-0.2-0.2-0.3-0.4-0.3-0.7s0.1-0.5,0.3-0.7s0.5-0.3,0.8-0.3s0.5,0.1,0.8,0.3c0.2,0.2,0.3,0.4,0.3,0.7s-0.1,0.5-0.3,0.7
	C238.5,915.4,238.3,915.5,238,915.5z M237.2,927v-9.8h1.5v9.8H237.2z M226.1,925.6h2.4c1.1,0,2-0.2,2.7-0.6c0.7-0.4,1.2-1,1.6-1.8
	c0.3-0.8,0.5-1.7,0.5-2.8s-0.2-2-0.5-2.7c-0.3-0.8-0.9-1.4-1.5-1.8c-0.7-0.4-1.5-0.6-2.6-0.6h-2.5L226.1,925.6L226.1,925.6z
	 M228.5,927h-4v-13.1h4.2c1.3,0,2.4,0.3,3.3,0.8c0.9,0.5,1.6,1.3,2.1,2.2c0.5,1,0.7,2.1,0.7,3.5s-0.2,2.5-0.7,3.5s-1.2,1.7-2.1,2.3
	C231,926.7,229.8,927,228.5,927z M218.3,920.5c0-1.6,0.2-3.1,0.6-4.4c0.4-1.4,1-2.6,1.8-3.7h1.3c-0.3,0.4-0.6,0.9-0.9,1.6
	c-0.3,0.6-0.5,1.3-0.7,2s-0.4,1.5-0.5,2.3s-0.2,1.6-0.2,2.3c0,1,0.1,2,0.3,3.1c0.2,1,0.5,2,0.8,2.9s0.7,1.6,1.1,2.2h-1.3
	c-0.8-1.1-1.4-2.4-1.8-3.7C218.5,923.5,218.3,922.1,218.3,920.5z M386.8,893.9l1.6-3h1.8l-2,3H386.8z M386.7,905v-9.8h1.5v9.8H386.7
	z M380.8,892.8h1.5v9.4c0,0.4,0.1,0.7,0.2,1c0.1,0.2,0.3,0.3,0.5,0.4c0.2,0.1,0.4,0.1,0.6,0.1s0.3,0,0.4,0s0.2,0,0.3-0.1l0.3,1.4
	c-0.1,0-0.2,0.1-0.4,0.1c-0.2,0-0.4,0.1-0.7,0.1c-0.4,0-0.8-0.1-1.3-0.3c-0.4-0.2-0.7-0.5-1-0.8c-0.3-0.4-0.4-0.8-0.4-1.4V892.8z
	 M384.4,895.2v1.3h-5.1v-1.3H384.4z M371.2,899.1v5.9h-1.5v-9.8h1.5v1.5h0.1c0.2-0.5,0.6-0.9,1-1.2c0.5-0.3,1.1-0.5,1.8-0.5
	c0.7,0,1.2,0.1,1.7,0.4c0.5,0.3,0.9,0.7,1.2,1.2c0.3,0.5,0.4,1.2,0.4,2.1v6.2h-1.5v-6.1c0-0.8-0.2-1.4-0.6-1.8
	c-0.4-0.4-1-0.7-1.6-0.7c-0.5,0-0.9,0.1-1.3,0.3s-0.7,0.5-0.9,0.9C371.3,898,371.2,898.5,371.2,899.1z M363.3,905.2
	c-0.9,0-1.8-0.2-2.4-0.6c-0.7-0.4-1.2-1-1.6-1.8s-0.5-1.6-0.5-2.6s0.2-1.9,0.5-2.7c0.4-0.8,0.9-1.4,1.5-1.8c0.7-0.4,1.4-0.7,2.3-0.7
	c0.5,0,1,0.1,1.5,0.3s1,0.4,1.4,0.8c0.4,0.4,0.7,0.9,1,1.5c0.2,0.6,0.4,1.4,0.4,2.3v0.6h-7.6v-1.3h6c0-0.6-0.1-1-0.3-1.5
	c-0.2-0.4-0.5-0.8-0.9-1c-0.4-0.3-0.9-0.4-1.4-0.4c-0.6,0-1.1,0.1-1.6,0.4c-0.4,0.3-0.8,0.7-1,1.2s-0.4,1-0.4,1.5v0.9
	c0,0.7,0.1,1.4,0.4,1.9s0.6,0.9,1.1,1.2s1,0.4,1.6,0.4c0.4,0,0.8-0.1,1.1-0.2c0.3-0.1,0.6-0.3,0.8-0.5c0.2-0.2,0.4-0.5,0.5-0.9
	l1.5,0.4c-0.2,0.5-0.4,0.9-0.8,1.3c-0.4,0.4-0.8,0.7-1.3,0.9C364.5,905.1,364,905.2,363.3,905.2z M352.8,905v-9.8h1.5v1.5h0.1
	c0.2-0.5,0.5-0.9,1-1.2s1-0.5,1.6-0.5c0.1,0,0.2,0,0.4,0c0.2,0,0.3,0,0.4,0v1.5c-0.1,0-0.2,0-0.4-0.1c-0.2,0-0.4,0-0.6,0
	c-0.5,0-0.9,0.1-1.3,0.3s-0.7,0.5-0.9,0.8c-0.2,0.3-0.3,0.7-0.3,1.2v6.2L352.8,905L352.8,905z M346.1,905v-9.8h1.5v1.5h0.1
	c0.2-0.5,0.5-0.9,1-1.2s1-0.5,1.6-0.5c0.1,0,0.2,0,0.4,0c0.2,0,0.3,0,0.4,0v1.5c-0.1,0-0.2,0-0.4-0.1c-0.2,0-0.4,0-0.6,0
	c-0.5,0-0.9,0.1-1.3,0.3s-0.7,0.5-0.9,0.8c-0.2,0.3-0.3,0.7-0.3,1.2v6.2L346.1,905L346.1,905z M339.3,903.9c0.7,0,1.2-0.2,1.7-0.5
	s0.8-0.8,1-1.4c0.2-0.6,0.3-1.2,0.3-1.8s-0.1-1.3-0.3-1.8c-0.2-0.6-0.5-1-1-1.4s-1-0.5-1.7-0.5s-1.2,0.2-1.7,0.5
	c-0.4,0.3-0.8,0.8-1,1.4c-0.2,0.6-0.3,1.2-0.3,1.8s0.1,1.3,0.3,1.8c0.2,0.6,0.5,1,1,1.4C338.1,903.7,338.6,903.9,339.3,903.9z
	 M339.3,905.2c-0.9,0-1.7-0.2-2.3-0.6c-0.7-0.4-1.2-1-1.6-1.8s-0.6-1.6-0.6-2.7c0-1,0.2-1.9,0.6-2.7s0.9-1.4,1.6-1.8
	c0.7-0.4,1.4-0.6,2.3-0.6s1.7,0.2,2.3,0.6c0.7,0.4,1.2,1,1.6,1.8s0.6,1.7,0.6,2.7s-0.2,1.9-0.6,2.7s-0.9,1.3-1.6,1.8
	C341,905,340.2,905.2,339.3,905.2z M324.7,893.3v-1.4h9.8v1.4h-4.1V905h-1.6v-11.7H324.7z M311.5,895.2l2.4,4l2.4-4h1.7l-3.2,4.9
	l3.2,4.9h-1.7l-2.4-3.8l-2.4,3.8h-1.7l3.1-4.9l-3.1-4.9H311.5z M304.3,905.2c-0.9,0-1.8-0.2-2.4-0.6c-0.7-0.4-1.2-1-1.6-1.8
	s-0.5-1.6-0.5-2.6s0.2-1.9,0.5-2.7c0.4-0.8,0.9-1.4,1.5-1.8c0.7-0.4,1.4-0.7,2.3-0.7c0.5,0,1,0.1,1.5,0.3s1,0.4,1.4,0.8
	c0.4,0.4,0.7,0.9,1,1.5c0.2,0.6,0.4,1.4,0.4,2.3v0.6h-7.6v-1.3h6c0-0.6-0.1-1-0.3-1.5c-0.2-0.4-0.5-0.8-0.9-1
	c-0.4-0.3-0.9-0.4-1.4-0.4c-0.6,0-1.1,0.1-1.6,0.4c-0.4,0.3-0.8,0.7-1,1.2s-0.4,1-0.4,1.5v0.9c0,0.7,0.1,1.4,0.4,1.9
	s0.6,0.9,1.1,1.2s1,0.4,1.6,0.4c0.4,0,0.8-0.1,1.1-0.2c0.3-0.1,0.6-0.3,0.8-0.5c0.2-0.2,0.4-0.5,0.5-0.9l1.5,0.4
	c-0.2,0.5-0.4,0.9-0.8,1.3c-0.4,0.4-0.8,0.7-1.3,0.9C305.6,905.1,305,905.2,304.3,905.2z M297.4,891.9V905h-1.5v-13.1H297.4z
	 M285.1,899.9h6.7v1.4h-6.7V899.9z M284.5,905h-1.7l4.8-13.1h1.6L294,905h-1.7l-3.9-11h-0.1L284.5,905z"/>
<path class="st10" d="M1739.3,921.1v5.9h-1.5v-9.8h1.5v1.5h0.1c0.2-0.5,0.6-0.9,1-1.2c0.5-0.3,1.1-0.5,1.8-0.5
	c0.7,0,1.2,0.1,1.7,0.4c0.5,0.3,0.9,0.7,1.2,1.2c0.3,0.5,0.4,1.2,0.4,2.1v6.2h-1.5v-6.1c0-0.8-0.2-1.4-0.6-1.8
	c-0.4-0.4-1-0.7-1.6-0.7c-0.5,0-0.9,0.1-1.3,0.3s-0.7,0.5-0.9,0.9C1739.4,920,1739.3,920.5,1739.3,921.1z M1730.4,915.9l1.6-3h1.8
	l-2,3H1730.4z M1731,925.9c0.7,0,1.2-0.2,1.7-0.5c0.4-0.3,0.8-0.8,1-1.4c0.2-0.6,0.3-1.2,0.3-1.8s-0.1-1.3-0.3-1.8
	c-0.2-0.6-0.5-1-1-1.4c-0.4-0.3-1-0.5-1.7-0.5s-1.2,0.2-1.7,0.5c-0.4,0.3-0.8,0.8-1,1.4c-0.2,0.6-0.3,1.2-0.3,1.8s0.1,1.3,0.3,1.8
	c0.2,0.6,0.5,1,1,1.4C1729.8,925.7,1730.4,925.9,1731,925.9z M1731,927.2c-0.9,0-1.7-0.2-2.3-0.6c-0.7-0.4-1.2-1-1.6-1.8
	s-0.6-1.6-0.6-2.7c0-1,0.2-1.9,0.6-2.7s0.9-1.4,1.6-1.8c0.7-0.4,1.4-0.6,2.3-0.6s1.7,0.2,2.3,0.6c0.7,0.4,1.2,1,1.6,1.8
	s0.6,1.7,0.6,2.7s-0.2,1.9-0.6,2.7s-0.9,1.3-1.6,1.8C1732.7,927,1731.9,927.2,1731,927.2z M1723.6,915.5c-0.3,0-0.5-0.1-0.8-0.3
	c-0.2-0.2-0.3-0.4-0.3-0.7s0.1-0.5,0.3-0.7c0.2-0.2,0.5-0.3,0.8-0.3s0.5,0.1,0.8,0.3c0.2,0.2,0.3,0.4,0.3,0.7s-0.1,0.5-0.3,0.7
	C1724.1,915.4,1723.8,915.5,1723.6,915.5z M1722.8,927v-9.8h1.5v9.8H1722.8z M1716.7,927.2c-0.9,0-1.7-0.2-2.4-0.7
	c-0.7-0.4-1.2-1-1.5-1.8c-0.4-0.8-0.5-1.6-0.5-2.6s0.2-1.9,0.5-2.6c0.4-0.8,0.9-1.4,1.5-1.8c0.7-0.4,1.4-0.7,2.3-0.7
	c0.7,0,1.3,0.1,1.9,0.4s1,0.6,1.4,1.1s0.6,1,0.7,1.6h-1.5c-0.1-0.4-0.4-0.8-0.8-1.2c-0.4-0.3-0.9-0.5-1.6-0.5
	c-0.6,0-1.1,0.2-1.5,0.5s-0.8,0.7-1,1.3c-0.2,0.5-0.4,1.2-0.4,1.9c0,0.8,0.1,1.4,0.4,2c0.2,0.6,0.6,1,1,1.3s1,0.5,1.6,0.5
	c0.4,0,0.7-0.1,1.1-0.2s0.6-0.3,0.8-0.6s0.4-0.6,0.5-0.9h1.5c-0.1,0.6-0.3,1.1-0.6,1.6c-0.3,0.5-0.8,0.8-1.3,1.1
	C1718.1,927.1,1717.4,927.2,1716.7,927.2z M1703.7,921.1v5.9h-1.5v-9.8h1.5v1.5h0.1c0.2-0.5,0.6-0.9,1-1.2c0.5-0.3,1.1-0.5,1.8-0.5
	c0.7,0,1.2,0.1,1.7,0.4c0.5,0.3,0.9,0.7,1.2,1.2c0.3,0.5,0.4,1.2,0.4,2.1v6.2h-1.5v-6.1c0-0.8-0.2-1.4-0.6-1.8
	c-0.4-0.4-1-0.7-1.6-0.7c-0.5,0-0.9,0.1-1.3,0.3s-0.7,0.5-0.9,0.9C1703.8,920,1703.7,920.5,1703.7,921.1z M1695.8,927.2
	c-0.9,0-1.8-0.2-2.4-0.6c-0.7-0.4-1.2-1-1.6-1.8s-0.5-1.6-0.5-2.6s0.2-1.9,0.5-2.7c0.4-0.8,0.9-1.4,1.5-1.8c0.7-0.4,1.4-0.7,2.3-0.7
	c0.5,0,1,0.1,1.5,0.3s1,0.4,1.4,0.8c0.4,0.4,0.7,0.9,1,1.5s0.4,1.4,0.4,2.3v0.6h-7.6v-1.3h6c0-0.6-0.1-1-0.3-1.5
	c-0.2-0.4-0.5-0.8-0.9-1c-0.4-0.3-0.9-0.4-1.4-0.4c-0.6,0-1.1,0.1-1.6,0.4c-0.4,0.3-0.8,0.7-1,1.2s-0.4,1-0.4,1.5v0.9
	c0,0.7,0.1,1.4,0.4,1.9s0.6,0.9,1.1,1.2s1,0.4,1.6,0.4c0.4,0,0.8-0.1,1.1-0.2c0.3-0.1,0.6-0.3,0.8-0.5c0.2-0.2,0.4-0.5,0.5-0.9
	l1.5,0.4c-0.2,0.5-0.4,0.9-0.8,1.3c-0.4,0.4-0.8,0.7-1.3,0.9C1697.1,927.1,1696.5,927.2,1695.8,927.2z M1686,914.8h1.5v9.4
	c0,0.4,0.1,0.7,0.2,1c0.1,0.2,0.3,0.3,0.5,0.4c0.2,0.1,0.4,0.1,0.6,0.1s0.3,0,0.4,0s0.2,0,0.3-0.1l0.3,1.4c-0.1,0-0.2,0.1-0.4,0.1
	c-0.2,0-0.4,0.1-0.7,0.1c-0.4,0-0.8-0.1-1.3-0.3c-0.4-0.2-0.7-0.5-1-0.8c-0.3-0.4-0.4-0.8-0.4-1.4V914.8z M1689.6,917.2v1.3h-5.1
	v-1.3H1689.6z M1675.8,922.1c0,0.7,0.1,1.4,0.3,2c0.2,0.6,0.5,1,1,1.3c0.4,0.3,0.9,0.5,1.5,0.5s1.2-0.2,1.6-0.5s0.7-0.8,1-1.4
	c0.2-0.6,0.3-1.2,0.3-1.9s-0.1-1.3-0.3-1.9c-0.2-0.6-0.5-1-1-1.3c-0.4-0.3-1-0.5-1.6-0.5s-1.1,0.2-1.5,0.5s-0.7,0.7-0.9,1.3
	C1675.9,920.7,1675.8,921.4,1675.8,922.1z M1674.3,927v-13.1h1.5v4.8h0.1c0.1-0.2,0.3-0.4,0.5-0.7s0.5-0.5,0.9-0.7s0.9-0.3,1.5-0.3
	c0.8,0,1.6,0.2,2.2,0.6c0.6,0.4,1.1,1,1.5,1.8s0.5,1.7,0.5,2.7s-0.2,1.9-0.5,2.7c-0.4,0.8-0.8,1.3-1.5,1.8c-0.6,0.4-1.3,0.6-2.2,0.6
	c-0.6,0-1.1-0.1-1.5-0.3s-0.7-0.5-0.9-0.7c-0.2-0.3-0.4-0.5-0.5-0.7h-0.2v1.5L1674.3,927L1674.3,927z M1667.4,925.9
	c0.7,0,1.2-0.2,1.7-0.5c0.4-0.3,0.8-0.8,1-1.4c0.2-0.6,0.3-1.2,0.3-1.8s-0.1-1.3-0.3-1.8c-0.2-0.6-0.5-1-1-1.4
	c-0.4-0.3-1-0.5-1.7-0.5s-1.2,0.2-1.7,0.5c-0.4,0.3-0.8,0.8-1,1.4c-0.2,0.6-0.3,1.2-0.3,1.8s0.1,1.3,0.3,1.8c0.2,0.6,0.5,1,1,1.4
	C1666.1,925.7,1666.7,925.9,1667.4,925.9z M1667.4,927.2c-0.9,0-1.7-0.2-2.3-0.6c-0.7-0.4-1.2-1-1.6-1.8s-0.6-1.6-0.6-2.7
	c0-1,0.2-1.9,0.6-2.7s0.9-1.4,1.6-1.8c0.7-0.4,1.4-0.6,2.3-0.6s1.7,0.2,2.3,0.6c0.7,0.4,1.2,1,1.6,1.8s0.6,1.7,0.6,2.7
	s-0.2,1.9-0.6,2.7s-0.9,1.3-1.6,1.8C1669,927,1668.2,927.2,1667.4,927.2z M1651.9,927.2c-0.9,0-1.8-0.2-2.4-0.6
	c-0.7-0.4-1.2-1-1.6-1.8s-0.5-1.6-0.5-2.6s0.2-1.9,0.5-2.7c0.4-0.8,0.9-1.4,1.5-1.8c0.7-0.4,1.4-0.7,2.3-0.7c0.5,0,1,0.1,1.5,0.3
	s1,0.4,1.4,0.8c0.4,0.4,0.7,0.9,1,1.5s0.4,1.4,0.4,2.3v0.6h-7.6v-1.3h6c0-0.6-0.1-1-0.3-1.5c-0.2-0.4-0.5-0.8-0.9-1
	c-0.4-0.3-0.9-0.4-1.4-0.4c-0.6,0-1.1,0.1-1.6,0.4c-0.4,0.3-0.8,0.7-1,1.2s-0.4,1-0.4,1.5v0.9c0,0.7,0.1,1.4,0.4,1.9
	s0.6,0.9,1.1,1.2s1,0.4,1.6,0.4c0.4,0,0.8-0.1,1.1-0.2c0.3-0.1,0.6-0.3,0.8-0.5c0.2-0.2,0.4-0.5,0.5-0.9l1.5,0.4
	c-0.2,0.5-0.4,0.9-0.8,1.3c-0.4,0.4-0.8,0.7-1.3,0.9C1653.2,927.1,1652.6,927.2,1651.9,927.2z M1640.6,925.9c0.6,0,1.1-0.2,1.5-0.5
	s0.7-0.8,1-1.3c0.2-0.6,0.3-1.2,0.3-2c0-0.7-0.1-1.4-0.3-1.9c-0.2-0.6-0.5-1-0.9-1.3s-0.9-0.5-1.5-0.5s-1.2,0.2-1.6,0.5
	s-0.7,0.8-1,1.3c-0.2,0.6-0.3,1.2-0.3,1.9s0.1,1.3,0.3,1.9c0.2,0.6,0.5,1,1,1.4C1639.4,925.7,1639.9,925.9,1640.6,925.9z
	 M1640.4,927.2c-0.8,0-1.5-0.2-2.2-0.6c-0.6-0.4-1.1-1-1.5-1.8s-0.5-1.7-0.5-2.7s0.2-1.9,0.5-2.7c0.4-0.8,0.8-1.3,1.5-1.8
	c0.6-0.4,1.4-0.6,2.2-0.6c0.6,0,1.1,0.1,1.5,0.3s0.7,0.4,0.9,0.7c0.2,0.3,0.4,0.5,0.5,0.7h0.1v-4.8h1.5V927h-1.5v-1.5h-0.2
	c-0.1,0.2-0.3,0.4-0.5,0.7s-0.5,0.5-0.9,0.7C1641.5,927.1,1641,927.2,1640.4,927.2z M1624.6,925.9c0.6,0,1.1-0.1,1.5-0.4
	c0.4-0.2,0.7-0.5,0.9-0.9c0.2-0.4,0.3-0.8,0.3-1.2V922c-0.1,0.1-0.2,0.1-0.4,0.2c-0.2,0.1-0.5,0.1-0.7,0.2c-0.3,0-0.5,0.1-0.8,0.1
	s-0.5,0.1-0.6,0.1c-0.4,0.1-0.8,0.1-1.1,0.2c-0.3,0.1-0.6,0.3-0.8,0.5c-0.2,0.2-0.3,0.5-0.3,0.9c0,0.5,0.2,0.9,0.6,1.2
	C1623.5,925.7,1624,925.9,1624.6,925.9z M1624.3,927.2c-0.6,0-1.2-0.1-1.7-0.4c-0.5-0.2-0.9-0.6-1.2-1c-0.3-0.5-0.4-1-0.4-1.6
	s0.1-1,0.3-1.4c0.2-0.4,0.5-0.6,0.9-0.8s0.8-0.3,1.2-0.4c0.5-0.1,0.9-0.2,1.4-0.2c0.6-0.1,1.1-0.1,1.5-0.2c0.4,0,0.6-0.1,0.8-0.2
	c0.2-0.1,0.3-0.3,0.3-0.5v-0.1c0-0.6-0.2-1.1-0.5-1.5c-0.3-0.3-0.9-0.5-1.6-0.5s-1.3,0.2-1.7,0.5c-0.4,0.3-0.7,0.7-0.9,1l-1.4-0.5
	c0.3-0.6,0.6-1.1,1-1.4c0.4-0.3,0.9-0.6,1.4-0.7c0.5-0.1,1-0.2,1.5-0.2c0.3,0,0.7,0,1.1,0.1s0.8,0.2,1.2,0.5c0.4,0.2,0.7,0.6,1,1
	c0.3,0.5,0.4,1.1,0.4,1.9v6.5h-1.5v-1.3h-0.1c-0.1,0.2-0.3,0.4-0.5,0.7c-0.2,0.2-0.6,0.4-1,0.6
	C1625.4,927.1,1624.9,927.2,1624.3,927.2z M1612.3,921.1v5.9h-1.5v-13.1h1.5v4.8h0.1c0.2-0.5,0.6-0.9,1-1.2c0.5-0.3,1.1-0.5,1.9-0.5
	c0.7,0,1.3,0.1,1.8,0.4c0.5,0.3,0.9,0.7,1.2,1.2c0.3,0.5,0.4,1.2,0.4,2.1v6.2h-1.5v-6.1c0-0.8-0.2-1.4-0.6-1.8
	c-0.4-0.4-1-0.6-1.7-0.6c-0.5,0-0.9,0.1-1.3,0.3s-0.7,0.5-0.9,0.9C1612.4,920,1612.3,920.5,1612.3,921.1z M1604.7,927.2
	c-0.9,0-1.7-0.2-2.4-0.7c-0.7-0.4-1.2-1-1.5-1.8c-0.4-0.8-0.5-1.6-0.5-2.6s0.2-1.9,0.5-2.6c0.4-0.8,0.9-1.4,1.5-1.8
	c0.7-0.4,1.4-0.7,2.3-0.7c0.7,0,1.3,0.1,1.9,0.4s1,0.6,1.4,1.1s0.6,1,0.7,1.6h-1.5c-0.1-0.4-0.4-0.8-0.8-1.2
	c-0.4-0.3-0.9-0.5-1.6-0.5c-0.6,0-1.1,0.2-1.5,0.5s-0.8,0.7-1,1.3c-0.2,0.5-0.4,1.2-0.4,1.9c0,0.8,0.1,1.4,0.4,2
	c0.2,0.6,0.6,1,1,1.3s1,0.5,1.6,0.5c0.4,0,0.7-0.1,1.1-0.2s0.6-0.3,0.8-0.6s0.4-0.6,0.5-0.9h1.5c-0.1,0.6-0.3,1.1-0.6,1.6
	c-0.3,0.5-0.8,0.8-1.3,1.1C1606.1,927.1,1605.5,927.2,1604.7,927.2z M1594.4,927.2c-0.9,0-1.8-0.2-2.4-0.6c-0.7-0.4-1.2-1-1.6-1.8
	s-0.5-1.6-0.5-2.6s0.2-1.9,0.5-2.7c0.4-0.8,0.9-1.4,1.5-1.8c0.7-0.4,1.4-0.7,2.3-0.7c0.5,0,1,0.1,1.5,0.3s1,0.4,1.4,0.8
	c0.4,0.4,0.7,0.9,1,1.5s0.4,1.4,0.4,2.3v0.6h-7.6v-1.3h6c0-0.6-0.1-1-0.3-1.5c-0.2-0.4-0.5-0.8-0.9-1c-0.4-0.3-0.9-0.4-1.4-0.4
	c-0.6,0-1.1,0.1-1.6,0.4c-0.4,0.3-0.8,0.7-1,1.2s-0.4,1-0.4,1.5v0.9c0,0.7,0.1,1.4,0.4,1.9s0.6,0.9,1.1,1.2s1,0.4,1.6,0.4
	c0.4,0,0.8-0.1,1.1-0.2c0.3-0.1,0.6-0.3,0.8-0.5c0.2-0.2,0.4-0.5,0.5-0.9l1.5,0.4c-0.2,0.5-0.4,0.9-0.8,1.3
	c-0.4,0.4-0.8,0.7-1.3,0.9C1595.7,927.1,1595.1,927.2,1594.4,927.2z M1580.6,927v-13.1h7.8v1.4h-6.3v4.4h5.7v1.4h-5.7v5.9
	L1580.6,927L1580.6,927z"/>
</svg>
