<?xml version="1.0" encoding="utf-8"?>
<!-- Generator: Adobe Illustrator 26.3.1, SVG Export Plug-In . SVG Version: 6.00 Build 0)  -->
<svg version="1.1" id="Capa_1" xmlns="http://www.w3.org/2000/svg" xmlns:xlink="http://www.w3.org/1999/xlink" x="0px" y="0px"
	 viewBox="0 0 512 512" style="enable-background:new 0 0 512 512;" xml:space="preserve">
<style type="text/css">
	.st0{fill:#FFFFFF;}
</style>
<path class="st0" d="M172.6,56C108.3,56,56,108.4,56,172.7v166.7C56,403.7,108.4,456,172.7,456h166.7c64.3,0,116.7-52.4,116.7-116.7
	V172.6C456,108.3,403.6,56,339.3,56H172.6z M376,120c8.8,0,16,7.2,16,16s-7.2,16-16,16s-16-7.2-16-16S367.2,120,376,120z M256,152
	c57.4,0,104,46.6,104,104s-46.6,104-104,104c-57.4,0-104-46.6-104-104S198.6,152,256,152z M256,184c-39.8,0-72,32.2-72,72
	s32.2,72,72,72s72-32.2,72-72S295.8,184,256,184z"/>
</svg>
