<?xml version="1.0" encoding="utf-8"?>
<!-- Generator: Adobe Illustrator 26.4.1, SVG Export Plug-In . SVG Version: 6.00 Build 0)  -->
<svg version="1.1" id="Capa_1" xmlns="http://www.w3.org/2000/svg" xmlns:xlink="http://www.w3.org/1999/xlink" x="0px" y="0px"
	 viewBox="0 0 15.8 16.7" style="enable-background:new 0 0 15.8 16.7;" xml:space="preserve">
<path d="M2.9,6.7c0.7,0,1.2,0.6,1.2,1.2c0,0.7-0.6,1.2-1.2,1.2c-0.7,0-1.2-0.6-1.2-1.2C1.7,7.2,2.2,6.7,2.9,6.7 M12.9,1.7
	c0.7,0,1.2,0.6,1.2,1.2c0,0.7-0.6,1.2-1.2,1.2c-0.7,0-1.2-0.6-1.2-1.2C11.7,2.2,12.2,1.7,12.9,1.7 M12.9,12.5c0.7,0,1.2,0.6,1.2,1.2
	c0,0.7-0.6,1.2-1.2,1.2c-0.7,0-1.2-0.6-1.2-1.2C11.7,13.1,12.2,12.5,12.9,12.5 M2.9,10.8c0.8,0,1.4-0.3,2-0.8l5.2,3
	C10,13.3,10,13.5,10,13.8c0,1.6,1.3,2.9,2.9,2.9c1.6,0,2.9-1.3,2.9-2.9c0-1.6-1.3-2.9-2.9-2.9c-0.8,0-1.4,0.3-2,0.8l-5.2-3
	C5.8,8.4,5.8,8.2,5.8,8L11,5.1c0.5,0.5,1.2,0.8,2,0.8c1.6,0,2.9-1.3,2.9-2.9c0-1.6-1.3-2.9-2.9-2.9C11.3,0,10,1.3,10,2.9
	c0,0.2,0,0.5,0.1,0.7L5.4,6.3C4.8,5.5,3.9,5,2.9,5C1.3,5,0,6.3,0,7.9C0,9.5,1.3,10.8,2.9,10.8"/>
</svg>
