<?xml version="1.0" encoding="utf-8"?>
<!-- Generator: Adobe Illustrator 26.4.1, SVG Export Plug-In . SVG Version: 6.00 Build 0)  -->
<svg version="1.1" id="Capa_1" xmlns="http://www.w3.org/2000/svg" xmlns:xlink="http://www.w3.org/1999/xlink" x="0px" y="0px"
	 viewBox="0 0 123 34.2" style="enable-background:new 0 0 123 34.2;" xml:space="preserve">
<style type="text/css">
	.st0{fill:#0BF082;}
	.st1{fill-rule:evenodd;clip-rule:evenodd;fill:#047AF3;}
	.st2{fill-rule:evenodd;clip-rule:evenodd;fill:#0DC0CB;}
</style>
<ellipse class="st0" cx="11.5" cy="11.5" rx="11.6" ry="11.5"/>
<path class="st1" d="M23.9,11.5H11.5v12.1h0v10.5h12.4c3.3,0,6.1-2.7,6.1-6.1c0-2.3-1.2-4.2-3.1-5.3c1.8-1,3.1-3,3.1-5.3
	C30,14.2,27.3,11.5,23.9,11.5z"/>
<path class="st2" d="M23.1,11.5c0,6.4-5.2,11.5-11.6,11.5c0,0,0,0,0,0V11.5H23.1z"/>
<path d="M46.9,13.1c0.6,0,1.2-0.1,1.7-0.4c0.5-0.3,0.9-0.7,1.2-1.2c0.3-0.5,0.4-1.1,0.4-1.8c0-0.7-0.1-1.3-0.4-1.8
	c-0.3-0.5-0.7-0.9-1.2-1.2c-0.5-0.3-1.1-0.4-1.7-0.4s-1.2,0.1-1.7,0.4c-0.5,0.3-0.9,0.7-1.2,1.2c-0.3,0.5-0.4,1.1-0.4,1.8
	c0,0.7,0.1,1.3,0.4,1.8c0.3,0.5,0.7,0.9,1.2,1.2C45.7,12.9,46.2,13.1,46.9,13.1z M46.9,15.2c-1.1,0-2.1-0.2-3-0.7
	c-0.9-0.5-1.6-1.2-2.1-2c-0.5-0.9-0.8-1.8-0.8-2.9s0.3-2,0.8-2.9c0.5-0.9,1.2-1.5,2.1-2c0.9-0.5,1.9-0.7,3-0.7c1.1,0,2.1,0.2,3,0.7
	c0.9,0.5,1.6,1.2,2.1,2c0.5,0.8,0.8,1.8,0.8,2.9s-0.3,2-0.8,2.9c-0.5,0.8-1.2,1.5-2.1,2C49,15,48,15.2,46.9,15.2z"/>
<path d="M58.6,13.2c0.6,0,1.1-0.2,1.5-0.6c0.4-0.4,0.6-1,0.6-1.7s-0.2-1.3-0.6-1.7c-0.4-0.4-0.9-0.6-1.5-0.6s-1.1,0.2-1.5,0.6
	c-0.4,0.4-0.6,1-0.6,1.7s0.2,1.3,0.6,1.7C57.5,13,58,13.2,58.6,13.2z M59,6.6c0.8,0,1.5,0.2,2.1,0.5c0.6,0.4,1.1,0.9,1.5,1.5
	c0.4,0.6,0.5,1.4,0.5,2.2s-0.2,1.6-0.5,2.3c-0.4,0.6-0.9,1.1-1.5,1.5c-0.6,0.4-1.3,0.5-2.1,0.5c-1.1,0-1.9-0.3-2.5-1V18l-2.4-0.6
	V6.7h2.3v1C57,6.9,57.9,6.6,59,6.6z"/>
<path d="M68.2,8.4c-0.5,0-1,0.2-1.4,0.5c-0.4,0.3-0.6,0.7-0.7,1.3h4.1c-0.1-0.5-0.3-0.9-0.7-1.3C69.2,8.6,68.7,8.4,68.2,8.4z
	 M72.5,10.9c0,0,0,0.2,0,0.7h-6.2c0.1,0.5,0.4,0.9,0.8,1.2s0.9,0.4,1.6,0.4c0.4,0,0.8-0.1,1.1-0.2c0.3-0.1,0.6-0.3,0.9-0.6l1.3,1.4
	c-0.8,0.9-1.9,1.3-3.4,1.3c-0.9,0-1.8-0.2-2.5-0.5c-0.7-0.4-1.3-0.9-1.7-1.5c-0.4-0.6-0.6-1.4-0.6-2.2c0-0.8,0.2-1.5,0.6-2.2
	c0.4-0.7,0.9-1.2,1.6-1.5c0.7-0.4,1.4-0.6,2.3-0.6c0.8,0,1.5,0.2,2.2,0.5C71,7.4,71.5,8,71.9,8.6C72.3,9.3,72.5,10,72.5,10.9z"/>
<path d="M78.8,6.6c1,0,1.8,0.3,2.5,0.9c0.6,0.6,1,1.5,1,2.8V15h-2.4v-4.4c0-0.7-0.1-1.2-0.4-1.5c-0.3-0.3-0.7-0.5-1.2-0.5
	c-0.6,0-1.1,0.2-1.4,0.6c-0.4,0.4-0.5,0.9-0.5,1.7V15h-2.4V6.7h2.3v1c0.3-0.4,0.7-0.6,1.2-0.8C77.7,6.7,78.2,6.6,78.8,6.6z"/>
<path d="M47.7,28.2c0.7,0,1.2-0.1,1.5-0.3c0.3-0.2,0.5-0.6,0.5-1.1c0-0.9-0.7-1.4-2-1.4h-2.9v2.8H47.7z M44.8,20.8v2.7h2.5
	c0.6,0,1.1-0.1,1.4-0.3s0.5-0.6,0.5-1s-0.2-0.8-0.5-1c-0.3-0.2-0.8-0.3-1.4-0.3H44.8z M50.3,24.3c0.6,0.2,1.1,0.5,1.5,1
	c0.4,0.5,0.5,1.1,0.5,1.8c0,1-0.4,1.8-1.1,2.3c-0.7,0.5-1.8,0.8-3.2,0.8h-5.6V18.9h5.3c1.3,0,2.3,0.3,3.1,0.8
	c0.7,0.5,1.1,1.2,1.1,2.1c0,0.5-0.1,1-0.4,1.5C51.1,23.7,50.7,24.1,50.3,24.3z"/>
<path d="M57.7,28.2c0.6,0,1.1-0.2,1.5-0.6c0.4-0.4,0.6-1,0.6-1.8c0-0.7-0.2-1.3-0.6-1.7c-0.4-0.4-0.9-0.7-1.5-0.7s-1.1,0.2-1.5,0.7
	c-0.4,0.4-0.6,1-0.6,1.7c0,0.7,0.2,1.3,0.6,1.8C56.5,28,57,28.2,57.7,28.2z M57.7,30.3c-0.9,0-1.7-0.2-2.4-0.6
	c-0.7-0.4-1.2-0.9-1.6-1.6c-0.4-0.7-0.6-1.4-0.6-2.3c0-0.9,0.2-1.6,0.6-2.3c0.4-0.7,0.9-1.2,1.6-1.6c0.7-0.4,1.5-0.6,2.4-0.6
	s1.7,0.2,2.4,0.6c0.7,0.4,1.2,0.9,1.6,1.6c0.4,0.7,0.6,1.4,0.6,2.3c0,0.9-0.2,1.6-0.6,2.3c-0.4,0.7-0.9,1.2-1.6,1.6
	C59.3,30.1,58.6,30.3,57.7,30.3z"/>
<path d="M67.6,28.2c0.6,0,1.1-0.2,1.5-0.6c0.4-0.4,0.6-1,0.6-1.8c0-0.7-0.2-1.3-0.6-1.7c-0.4-0.4-0.9-0.7-1.5-0.7
	c-0.6,0-1.1,0.2-1.5,0.7c-0.4,0.4-0.6,1-0.6,1.7c0,0.7,0.2,1.3,0.6,1.8C66.4,28,66.9,28.2,67.6,28.2z M67.6,30.3
	c-0.9,0-1.7-0.2-2.4-0.6c-0.7-0.4-1.2-0.9-1.6-1.6c-0.4-0.7-0.6-1.4-0.6-2.3c0-0.9,0.2-1.6,0.6-2.3c0.4-0.7,0.9-1.2,1.6-1.6
	c0.7-0.4,1.5-0.6,2.4-0.6c0.9,0,1.7,0.2,2.4,0.6c0.7,0.4,1.2,0.9,1.6,1.6c0.4,0.7,0.6,1.4,0.6,2.3c0,0.9-0.2,1.6-0.6,2.3
	c-0.4,0.7-0.9,1.2-1.6,1.6C69.2,30.1,68.4,30.3,67.6,30.3z"/>
<path d="M78.9,29.8c-0.2,0.2-0.5,0.3-0.9,0.4c-0.3,0.1-0.7,0.1-1.1,0.1c-1,0-1.8-0.3-2.3-0.8c-0.5-0.5-0.8-1.3-0.8-2.3v-3.6h-1.3
	v-1.9h1.3v-2.8l2.4,0.7v2.1h2.1v1.9h-2.1v3.5c0,0.4,0.1,0.7,0.3,0.9c0.2,0.2,0.4,0.3,0.8,0.3c0.4,0,0.7-0.1,1-0.3L78.9,29.8z"/>
<path d="M83.7,30.3c-0.9,0-1.7-0.2-2.4-0.6c-0.7-0.4-1.3-0.9-1.7-1.6c-0.4-0.7-0.6-1.4-0.6-2.3c0-0.9,0.2-1.6,0.6-2.3
	c0.4-0.7,1-1.2,1.7-1.6c0.7-0.4,1.5-0.6,2.4-0.6c0.9,0,1.7,0.2,2.3,0.6c0.7,0.4,1.1,0.9,1.4,1.6l-1.9,1.1c-0.4-0.8-1.1-1.2-1.9-1.2
	c-0.6,0-1.2,0.2-1.6,0.6c-0.4,0.4-0.6,1-0.6,1.8s0.2,1.3,0.6,1.8c0.4,0.4,0.9,0.6,1.6,0.6c0.8,0,1.5-0.4,1.9-1.2l1.9,1.1
	c-0.3,0.7-0.8,1.2-1.4,1.6C85.4,30.1,84.6,30.3,83.7,30.3z"/>
<path d="M91.7,28.6c0.4,0,0.8-0.1,1.1-0.3c0.3-0.2,0.6-0.5,0.7-0.9v-0.9h-1.7c-1,0-1.5,0.3-1.5,1c0,0.3,0.1,0.6,0.4,0.8
	C91,28.5,91.3,28.6,91.7,28.6z M91.9,21.4c1.3,0,2.3,0.3,3,1c0.7,0.6,1,1.6,1,2.9v5h-2.3v-1.1c-0.5,0.8-1.3,1.2-2.6,1.2
	c-0.6,0-1.2-0.1-1.7-0.3c-0.5-0.2-0.8-0.5-1.1-0.9c-0.2-0.4-0.4-0.9-0.4-1.4c0-0.8,0.3-1.4,0.9-1.9c0.6-0.5,1.5-0.7,2.7-0.7h1.9
	c0-0.5-0.2-1-0.5-1.3c-0.3-0.3-0.8-0.5-1.4-0.5c-0.4,0-0.9,0.1-1.3,0.2c-0.4,0.1-0.8,0.3-1.1,0.6l-0.9-1.8c0.5-0.3,1-0.6,1.6-0.8
	C90.6,21.5,91.3,21.4,91.9,21.4z"/>
<path d="M108.6,21.4c1,0,1.9,0.3,2.5,1c0.6,0.6,0.9,1.6,0.9,2.9v5h-2.4v-4.6c0-0.7-0.1-1.2-0.4-1.5c-0.3-0.3-0.7-0.5-1.2-0.5
	c-0.6,0-1,0.2-1.4,0.6c-0.3,0.4-0.5,0.9-0.5,1.7v4.4h-2.4v-4.6c0-1.4-0.5-2.1-1.6-2.1c-0.6,0-1,0.2-1.3,0.6
	c-0.3,0.4-0.5,0.9-0.5,1.7v4.4h-2.4v-8.7h2.3v1c0.3-0.4,0.7-0.6,1.1-0.8c0.5-0.2,1-0.3,1.5-0.3c0.6,0,1.1,0.1,1.6,0.4
	c0.5,0.2,0.9,0.6,1.2,1.1c0.3-0.5,0.8-0.8,1.3-1.1C107.4,21.5,107.9,21.4,108.6,21.4z"/>
<path d="M118.4,28.2c0.6,0,1.1-0.2,1.5-0.6c0.4-0.4,0.6-1,0.6-1.8c0-0.7-0.2-1.3-0.6-1.7c-0.4-0.4-0.9-0.7-1.5-0.7
	c-0.6,0-1.1,0.2-1.5,0.7c-0.4,0.4-0.6,1-0.6,1.7c0,0.7,0.2,1.3,0.6,1.8C117.3,28,117.8,28.2,118.4,28.2z M118.8,21.4
	c0.8,0,1.5,0.2,2.1,0.6c0.6,0.4,1.1,0.9,1.5,1.6c0.4,0.7,0.5,1.4,0.5,2.3c0,0.9-0.2,1.7-0.5,2.4c-0.4,0.7-0.9,1.2-1.5,1.6
	c-0.6,0.4-1.3,0.5-2.1,0.5c-1.1,0-1.9-0.4-2.5-1.1V34l-2.4-0.6V21.5h2.3v1C116.8,21.7,117.7,21.4,118.8,21.4z"/>
</svg>
